<?xml version="1.0" encoding="UTF-8" standalone="no"?>
<!-- Created with Inkscape (http://www.inkscape.org/) -->

<svg
   width="500"
   height="500"
   viewBox="0 0 500.00002 500.00002"
   version="1.1"
   id="svg1"
   inkscape:version="1.4 (86a8ad7, 2024-10-11)"
   sodipodi:docname="Ejercicio_5-Sin_letras.svg"
   xmlns:inkscape="http://www.inkscape.org/namespaces/inkscape"
   xmlns:sodipodi="http://sodipodi.sourceforge.net/DTD/sodipodi-0.dtd"
   xmlns="http://www.w3.org/2000/svg"
   xmlns:svg="http://www.w3.org/2000/svg">
  <sodipodi:namedview
     id="namedview1"
     pagecolor="#ffffff"
     bordercolor="#000000"
     borderopacity="0.25"
     inkscape:showpageshadow="2"
     inkscape:pageopacity="0.0"
     inkscape:pagecheckerboard="0"
     inkscape:deskcolor="#d1d1d1"
     inkscape:document-units="mm"
     inkscape:zoom="0.97386896"
     inkscape:cx="216.66159"
     inkscape:cy="356.82419"
     inkscape:window-width="1920"
     inkscape:window-height="991"
     inkscape:window-x="-9"
     inkscape:window-y="-9"
     inkscape:window-maximized="1"
     inkscape:current-layer="layer1" />
  <defs
     id="defs1">
    <inkscape:path-effect
       effect="spiro"
       id="path-effect61"
       is_visible="true"
       lpeversion="1" />
    <inkscape:path-effect
       effect="spiro"
       id="path-effect32"
       is_visible="true"
       lpeversion="1" />
    <inkscape:path-effect
       effect="spiro"
       id="path-effect23"
       is_visible="true"
       lpeversion="1" />
    <inkscape:path-effect
       effect="spiro"
       id="path-effect20"
       is_visible="true"
       lpeversion="1" />
    <inkscape:path-effect
       effect="spiro"
       id="path-effect17"
       is_visible="true"
       lpeversion="1" />
    <inkscape:path-effect
       effect="spiro"
       id="path-effect16"
       is_visible="true"
       lpeversion="1" />
    <inkscape:path-effect
       effect="spiro"
       id="path-effect15"
       is_visible="true"
       lpeversion="1" />
    <inkscape:path-effect
       effect="spiro"
       id="path-effect13"
       is_visible="true"
       lpeversion="1" />
    <inkscape:path-effect
       effect="spiro"
       id="path-effect12"
       is_visible="true"
       lpeversion="1" />
    <inkscape:path-effect
       effect="spiro"
       id="path-effect11"
       is_visible="true"
       lpeversion="1" />
  </defs>
  <g
     inkscape:label="Capa 1"
     inkscape:groupmode="layer"
     id="layer1">
    <path
       style="fill:#d4ecec;fill-opacity:1;stroke-width:1.00157;paint-order:fill markers stroke"
       d="m 48.647362,143.03777 c -14.186484,13.00032 -25.063827,30.29786 -27.591041,49.37344 -1.377905,10.40052 -0.262158,21.01782 2.17824,31.22144 4.630168,19.35933 13.911901,37.27331 23.960641,54.456 14.600555,24.966 31.535121,49.42099 55.182078,66.07328 18.06237,12.7196 39.33377,20.32627 60.99073,24.68672 18.84387,3.79406 38.20489,5.22919 57.36032,3.6304 34.21599,-2.85581 67.89527,-15.79203 93.66432,-38.48224 8.95627,-7.88619 17.01114,-17.01412 22.31763,-27.7028 5.30648,-10.68868 7.71896,-23.05993 5.27341,-34.74008 -2.05004,-9.79113 -7.43806,-18.73133 -14.58323,-25.73244 -7.14516,-7.0011 -15.98994,-12.12762 -25.35117,-15.65412 -19.57146,-7.37284 -40.93394,-7.8256 -61.7168,-10.16512 -20.58025,-2.31671 -41.49861,-6.78784 -58.81248,-18.152 -13.43835,-8.82042 -23.9774,-21.3056 -34.46828,-33.48469 -10.49088,-12.1791 -21.38024,-24.43855 -35.23541,-32.58859 -5.76964,-3.39388 -12.018565,-6.03407 -18.569833,-7.40813 -6.551268,-1.37405 -13.414098,-1.45865 -19.912404,0.14733 -9.366698,2.31486 -17.573299,8.00295 -24.686721,14.5216 z"
       id="path17"
       inkscape:original-d="m 48.647362,143.03777 c -8.228906,4.84053 -18.394028,33.15765 -27.591041,49.37344 -9.197014,16.21579 1.45216,20.33024 2.17824,31.22144 0.72608,10.8912 16.215788,36.304 23.960641,54.456 7.744854,18.152 36.788055,44.04885 55.182078,66.07328 18.39403,22.02443 40.41846,16.21579 60.99073,24.68672 20.57227,8.47095 38.24021,2.6623 57.36032,3.6304 19.12011,0.96811 62.20085,-25.89685 93.66432,-38.48224 31.46347,-12.58539 18.152,-41.62859 27.59104,-62.44288 9.43904,-20.81429 -26.13888,-27.59104 -39.9344,-41.38656 -13.79552,-13.79552 -41.62859,-6.77675 -61.7168,-10.16512 -20.08821,-3.38837 -39.20832,-12.34336 -58.81248,-18.152 -19.60416,-5.80864 -45.98507,-43.32277 -69.70369,-66.07328 -23.718609,-22.75052 -25.654823,-5.08256 -38.482237,-7.2608 -12.827414,-2.17824 -16.457814,9.68107 -24.686721,14.5216 z"
       inkscape:path-effect="#path-effect17"
       transform="translate(5.1341611,21.563477)"
       inkscape:label="forma fondo" />
    <path
       style="fill:#467089;fill-opacity:1;stroke-width:1.00157;paint-order:fill markers stroke"
       d="m 222.72505,194.40793 c -2.3478,0.32786 -4.468,1.74526 -5.90629,3.62967 -1.43829,1.8844 -2.23388,4.20346 -2.55519,6.55217 -0.64262,4.6974 0.529,9.42609 1.01916,14.14184 0.60092,5.78137 0.17491,11.61341 0.18152,17.42592 0.0149,13.09948 2.17751,26.61018 -1.99672,39.0268 -3.17931,9.45712 -9.76067,17.34647 -16.51832,24.68672 -3.9979,4.34258 -8.13659,8.61694 -11.29646,13.60256 -3.15988,4.98562 -5.31043,10.82594 -4.85882,16.71128 0.24672,3.21519 1.28739,6.39365 3.16586,9.01465 1.87847,2.62101 4.61463,4.65738 7.72534,5.50695 3.69959,1.0104 7.68602,0.31647 11.25424,-1.08912 6.87884,-2.7097 12.48665,-7.90174 17.34834,-13.47174 4.86168,-5.57 9.16504,-11.63913 14.41766,-16.8421 8.50384,-8.42347 19.3415,-14.34689 30.8584,-17.60744 13.30571,-3.76698 27.30828,-4.04105 41.02352,-5.80864 8.79339,-1.13327 17.55465,-2.90271 25.81724,-6.11793 8.26259,-3.21521 16.03797,-7.9277 22.10404,-14.39383 8.08382,-8.61695 12.88737,-20.54558 11.7988,-32.31056 -0.74509,-8.05281 -4.19282,-15.77443 -9.39426,-21.967 -5.20144,-6.19257 -12.10667,-10.87404 -19.64894,-13.79244 -5.3201,-2.05855 -10.99536,-3.26541 -16.69984,-3.26736 -6.67247,-0.002 -13.35605,1.62864 -19.9672,0.72608 -6.43648,-0.87871 -12.41771,-4.17172 -17.06288,-8.71296 -3.79975,-3.71474 -6.77811,-8.25278 -10.8912,-11.61728 -3.70757,-3.03278 -8.29896,-5.01389 -13.06944,-5.4456 -4.01088,-0.36297 -8.25469,0.43456 -11.43576,2.90432 -2.828,2.19564 -4.63969,5.67813 -4.71952,9.25752 -0.0484,2.16933 0.51602,4.33546 1.5197,6.25924 1.00369,1.92378 2.43813,3.60871 4.10742,4.995 3.89735,3.23663 9.11264,4.80794 14.15856,4.35648 3.91848,-0.35059 7.65871,-1.85693 11.07272,-3.81192 3.52953,-2.02114 6.77424,-4.53697 9.62056,-7.44232 2.2129,-2.25879 4.18026,-4.74482 6.32498,-7.06844 2.14473,-2.32363 4.50108,-4.50888 7.28902,-6.001 1.34704,-0.72095 2.78079,-1.2724 4.11367,-2.01921 1.33289,-0.7468 2.59123,-1.72526 3.32865,-3.06335 0.24944,-0.45262 0.43606,-0.94319 0.51518,-1.4539 0.0791,-0.5107 0.0482,-1.04231 -0.12321,-1.52983 -0.17146,-0.48753 -0.48745,-0.92865 -0.91431,-1.21997 -0.42687,-0.29131 -0.96564,-0.42519 -1.47438,-0.3343 -0.30978,0.0554 -0.60085,0.18992 -0.86861,0.35524 -0.26776,0.16532 -0.51477,0.36164 -0.76507,0.55236 -2.75153,2.09659 -5.9475,3.54894 -8.71296,5.62712 -4.11565,3.09283 -7.09256,7.42008 -10.52816,11.25424 -2.49417,2.78352 -5.26285,5.33545 -8.34992,7.44232 -3.47255,2.36995 -7.42766,4.18819 -11.61728,4.538 -3.35691,0.28028 -6.85419,-0.43763 -9.62056,-2.35976 -1.58068,-1.09829 -2.90908,-2.58805 -3.69406,-4.3455 -0.78498,-1.75744 -1.00438,-3.78587 -0.4809,-5.6381 0.38702,-1.36939 1.1685,-2.61661 2.18948,-3.60789 1.02097,-0.99129 2.27632,-1.72979 3.61916,-2.20075 2.1383,-0.74994 4.48676,-0.82106 6.70519,-0.35922 2.21844,0.46183 4.3105,1.44246 6.18273,2.71898 2.87324,1.95903 5.22073,4.58539 7.44232,7.2608 2.9603,3.56502 5.79219,7.30624 9.43904,10.16512 5.26883,4.1304 12.00443,6.16305 18.69656,6.3532 6.6076,0.18775 13.17977,-1.32927 19.78568,-1.08912 5.06089,0.18398 10.06811,1.4085 14.70312,3.44888 4.45928,1.96302 8.5835,4.68021 12.16184,7.98688 4.65458,4.30121 8.39812,9.64176 10.52816,15.61072 1.91969,5.37951 2.5052,11.23647 1.63368,16.88136 -0.71913,4.65782 -2.43076,9.17323 -5.08256,13.06944 -3.17676,4.66751 -7.61409,8.3517 -12.34336,11.43576 -4.1104,2.68048 -8.48833,4.95731 -13.06944,6.71624 -9.09605,3.49245 -18.83881,4.89769 -28.49864,6.17168 -6.97447,0.91983 -13.96129,1.78481 -20.8748,3.08584 -5.72793,1.07792 -11.39499,2.45321 -17.06288,3.81192 -5.31413,1.2739 -10.67773,2.5498 -15.61072,4.90104 -3.79667,1.80963 -7.27672,4.22988 -10.52816,6.89776 -4.04171,3.31632 -7.75627,7.03111 -11.07272,11.07272 -3.68814,4.49458 -6.88942,9.39625 -10.8912,13.614 -3.00086,3.16281 -6.43298,5.91459 -10.16512,8.1684 -1.83376,1.10739 -3.75563,2.10162 -5.81537,2.6902 -2.05975,0.58859 -4.27409,0.75656 -6.34647,0.21412 -1.89216,-0.49527 -3.6167,-1.57789 -4.93487,-3.02288 -1.31816,-1.44499 -2.23262,-3.2436 -2.68897,-5.14552 -0.8566,-3.57002 -0.0945,-7.38002 1.45216,-10.70968 2.60748,-5.61335 7.25239,-9.96001 11.43576,-14.5216 4.47281,-4.87719 8.52195,-10.1502 11.98032,-15.79224 3.78924,-6.18183 6.88534,-12.8659 8.34992,-19.9672 1.30079,-6.30714 1.29196,-12.80128 1.27064,-19.24112 -0.0297,-8.96325 -0.0741,-17.9405 -0.9076,-26.86496 -0.34051,-3.64599 -0.81304,-7.30625 -0.53664,-10.95766 0.27639,-3.65142 1.37358,-7.35964 3.804,-10.09866 0.97917,-1.1035 2.16382,-2.04113 2.9433,-3.29369 0.38974,-0.62627 0.67162,-1.33175 0.72767,-2.06726 0.056,-0.73551 -0.12788,-1.50254 -0.58513,-2.08137 -0.41015,-0.51921 -1.01768,-0.86149 -1.65897,-1.02441 -0.64129,-0.16293 -1.31613,-0.15622 -1.97143,-0.0647 z"
       id="path11"
       inkscape:path-effect="#path-effect11"
       inkscape:original-d="m 222.72505,194.40793 c -1.21013,-0.36304 -5.08256,16.15528 -7.44232,24.32368 -2.35976,8.1684 0.24203,11.61728 0.18152,17.42592 -0.0605,5.80864 -1.45216,25.95736 -1.99672,39.0268 -0.54456,13.06944 -10.8912,16.45782 -16.51832,24.68672 -5.62712,8.22891 -10.77019,20.20923 -16.15528,30.31384 -5.38509,10.10462 7.32131,9.68107 10.8912,14.5216 3.56989,4.84054 7.44232,-0.72608 11.25424,-1.08912 3.81192,-0.36304 21.23784,-20.26973 31.766,-30.31384 10.52816,-10.0441 20.51176,-11.67778 30.8584,-17.60744 10.34664,-5.92965 27.34902,-3.87242 41.02352,-5.80864 13.67451,-1.93621 31.94752,-13.79552 47.92128,-20.51176 15.97376,-6.71624 7.74486,-21.41936 11.7988,-32.31056 4.05395,-10.8912 -19.18061,-23.83963 -29.0432,-35.75944 -9.86258,-11.91981 -11.19373,-2.23875 -16.69984,-3.26736 -5.5061,-1.02861 -13.31146,0.48405 -19.9672,0.72608 -6.65573,0.24203 -11.31474,-5.68763 -17.06288,-8.71296 -5.74813,-3.02533 -7.3213,-7.80536 -10.8912,-11.61728 -3.56989,-3.81192 -8.77347,-3.56989 -13.06944,-5.4456 -4.29597,-1.87571 -7.50283,1.87571 -11.43576,2.90432 -3.93293,1.02861 -3.20685,6.17168 -4.71952,9.25752 -1.51267,3.08584 3.87243,7.50283 5.62712,11.25424 1.75469,3.75141 9.37853,2.78331 14.15856,4.35648 4.78003,1.57317 7.32131,-2.42027 11.07272,-3.81192 3.75142,-1.39165 6.41371,-4.96155 9.62056,-7.44232 3.20686,-2.48077 9.076,-8.71296 13.614,-13.06944 4.538,-4.35648 4.96155,-3.38837 7.44232,-5.08256 2.48078,-1.69419 -1.27064,-3.08584 -1.99672,-4.538 -0.72608,-1.45216 -1.14962,0.66557 -1.63368,0.9076 -0.48405,0.24203 -5.92965,3.75141 -8.71296,5.62712 -2.7833,1.87571 -6.89776,7.62384 -10.52816,11.25424 -3.6304,3.6304 -5.56661,4.90104 -8.34992,7.44232 -2.78331,2.54128 -7.74485,2.96483 -11.61728,4.538 -3.87243,1.57317 -6.41371,-1.57317 -9.62056,-2.35976 -3.20685,-0.78659 -2.78331,-6.77675 -4.17496,-9.9836 -1.39165,-3.20685 3.93293,-3.69091 5.80864,-5.80864 1.87571,-2.11773 8.59195,1.57317 12.88792,2.35976 4.29597,0.78659 5.02205,4.90104 7.44232,7.2608 2.42027,2.35976 6.17168,6.65573 9.43904,10.16512 3.26736,3.50939 12.46438,4.23547 18.69656,6.3532 6.23219,2.11773 13.31147,-0.66557 19.78568,-1.08912 6.47422,-0.42355 9.68107,2.35976 14.70312,3.44888 5.02206,1.08912 8.22891,5.32459 12.16184,7.98688 3.93294,2.66229 6.89776,10.34664 10.52816,15.61072 3.6304,5.26408 1.08912,11.19373 1.63368,16.88136 0.54456,5.68763 -3.32786,8.83397 -5.08256,13.06944 -1.75469,4.23547 -8.34992,7.38181 -12.34336,11.43576 -3.99344,4.05395 -8.65245,4.59851 -13.06944,6.71624 -4.41698,2.11774 -19.1201,4.17496 -28.49864,6.17168 -9.37853,1.99672 -13.79552,1.99672 -20.8748,3.08584 -7.07928,1.08912 -11.37525,2.60179 -17.06288,3.81192 -5.68763,1.21014 -10.46765,3.26736 -15.61072,4.90104 -5.14307,1.63368 -7.07928,4.538 -10.52816,6.89776 -3.44888,2.35976 -7.38181,7.50283 -11.07272,11.07272 -3.69091,3.5699 -7.13979,8.95499 -10.8912,13.614 -3.75141,4.65902 -6.77675,5.4456 -10.16512,8.1684 -3.38837,2.7228 -8.10789,1.87571 -12.16184,2.90432 -4.05395,1.02862 -5.08256,-5.38509 -7.62384,-8.1684 -2.54128,-2.7833 0.96811,-7.13978 1.45216,-10.70968 0.48405,-3.56989 7.62384,-9.68106 11.43576,-14.5216 3.81192,-4.84053 8.04739,-10.64917 11.98032,-15.79224 3.93293,-5.14306 5.50611,-13.19045 8.34992,-19.9672 2.84381,-6.77675 0.84709,-12.82741 1.27064,-19.24112 0.42355,-6.41371 -0.60507,-17.97048 -0.9076,-26.86496 -0.30253,-8.89448 2.17824,-14.09805 3.26736,-21.05632 1.08912,-6.95827 2.05723,-4.84053 3.08584,-7.44232 1.02861,-2.60179 -2.42027,-0.72608 -3.6304,-1.08912 z"
       transform="translate(5.1341611,21.563477)"
       inkscape:label="linea centro" />
    <path
       style="fill:#467089;fill-opacity:1;stroke-width:1.00157;paint-order:fill markers stroke"
       d="m 389.68284,374.15199 c -0.55723,0.15167 -1.15332,0.1456 -1.71384,0.007 -0.56051,-0.13903 -1.08548,-0.40879 -1.54074,-0.7641 -0.91051,-0.71061 -1.52696,-1.74504 -1.9087,-2.83512 -0.76348,-2.18017 -0.64724,-4.57527 -1.25443,-6.80403 -0.40962,-1.50355 -1.13931,-2.89832 -1.6686,-4.36403 -1.57884,-4.37212 -1.2984,-9.30062 0.33086,-13.65421 1.62925,-4.35359 4.54084,-8.15484 8.01215,-11.24647 3.70933,-3.30362 8.0345,-5.82534 12.06528,-8.72808 4.53233,-3.26392 8.70566,-7.02282 12.45034,-11.1668 3.51724,-3.89229 6.66065,-8.12576 10.39668,-11.80857 1.49381,-1.47253 3.07949,-2.85402 4.49558,-4.40144 1.4161,-1.54742 2.67205,-3.28522 3.37161,-5.2627 0.33724,-0.9533 0.54779,-1.96591 1.07538,-2.82857 0.26379,-0.43133 0.60848,-0.82062 1.03883,-1.08601 0.43034,-0.26539 0.95096,-0.39987 1.4501,-0.31934 0.56016,0.0904 1.05958,0.44901 1.37468,0.92087 0.31511,0.47186 0.45466,1.04785 0.4518,1.61524 -0.006,1.13479 -0.54831,2.19033 -1.1004,3.18177 -3.81566,6.85213 -8.71692,13.0533 -14.0678,18.78732 -3.65065,3.91205 -7.5179,7.61915 -11.52652,11.16348 -3.33969,2.95288 -6.7828,5.79709 -10.4374,8.34992 -3.22617,2.25356 -6.64857,4.30677 -9.34828,7.17004 -1.92036,2.0367 -3.45755,4.5133 -3.99344,7.2608 -0.66939,3.43199 0.25995,6.97108 1.47357,10.25037 1.21361,3.27929 2.72907,6.48723 3.29609,9.93761 0.21275,1.29457 0.28465,2.64725 -0.11473,3.89692 -0.19969,0.62484 -0.51788,1.21608 -0.96104,1.69971 -0.44316,0.48364 -1.01409,0.85657 -1.64703,1.02885 z"
       id="path12"
       inkscape:path-effect="#path-effect12"
       inkscape:original-d="m 389.68284,374.15199 c -0.9076,2.2085 -4.36404,-7.01669 -6.41771,-10.39668 -2.05366,-3.37999 -1.02683,-2.82379 -1.6686,-4.36403 -0.64177,-1.54025 5.47644,-16.51489 8.34301,-24.90068 2.86658,-8.3858 8.12909,-5.98986 12.06528,-8.72808 3.93619,-2.73822 8.30023,-7.40175 12.45034,-11.1668 4.15012,-3.76505 6.9739,-7.82959 10.39668,-11.80857 3.42277,-3.97897 10.51984,-12.87299 7.86719,-9.66414 -2.65265,3.20885 2.40646,-2.85287 3.56431,-4.23392 1.15785,-1.38105 0.42355,3.81192 0.72608,5.71788 0.30254,1.90596 -9.31802,12.52488 -14.0678,18.78732 -4.74977,6.26244 -7.7146,7.47258 -11.52652,11.16348 -3.81192,3.69091 -6.92801,5.53636 -10.4374,8.34992 -3.50938,2.81356 -6.23218,4.78003 -9.34828,7.17004 -3.11609,2.39002 -2.60178,4.84054 -3.99344,7.2608 -1.39165,2.42027 3.3175,13.71377 4.76966,20.18798 1.45216,6.47421 -1.8152,4.41699 -2.7228,6.62548 z"
       transform="matrix(1.0338999,0,0,0.99521747,-9.0370249,22.990365)"
       inkscape:label="linea lateral derecho" />
    <path
       id="path13"
       style="fill:#467089;fill-opacity:1;stroke-width:1.00157;paint-order:fill markers stroke"
       inkscape:label="linea inferior centro"
       d="M 290.01624 358.04396 C 283.61223 358.29701 277.53897 361.21336 272.49476 365.16701 C 267.80942 368.83937 263.89876 373.38451 259.91663 377.80959 C 256.84894 381.21851 253.71477 384.58027 250.28968 387.6299 C 247.05731 390.50793 243.4909 393.14512 239.37952 394.49709 C 238.10205 394.91716 236.78651 395.20663 235.46546 395.45802 C 231.75801 396.16356 227.99645 396.56103 224.29944 397.31935 C 219.61696 398.27982 214.95378 399.87242 211.20569 402.83888 C 208.01004 405.36812 205.55606 408.9252 204.72522 412.91506 C 204.59705 413.53059 204.50986 414.18569 204.72522 414.77638 C 204.91898 415.30781 205.35317 415.73851 205.87366 415.95998 C 206.39415 416.18145 206.9923 416.19884 207.53577 416.04201 C 208.07924 415.88517 208.56749 415.56043 208.94983 415.14357 C 209.33218 414.72672 209.61209 414.21966 209.79553 413.68459 C 210.03124 412.99708 210.11054 412.26706 210.30725 411.5674 C 210.7427 410.01863 211.7392 408.66769 212.95179 407.61037 C 214.16437 406.55304 215.59077 405.76782 217.04749 405.08498 C 219.85766 403.76769 222.82281 402.80279 225.8385 402.06935 C 229.6453 401.14351 233.54222 400.58258 237.45569 400.39943 L 237.47327 400.39162 C 237.601 400.40185 237.72836 400.41046 237.85608 400.41701 C 238.06466 400.42771 243.05674 398.80517 241.76233 399.20802 C 243.03405 398.80517 251.4575 394.1925 249.0221 395.44045 C 251.43028 394.24006 250.97572 393.87468 251.85218 393.10646 L 251.89515 393.08498 L 264.73108 379.60646 C 268.02415 374.47051 272.61042 370.17346 277.94983 367.22169 C 281.02362 365.52243 284.34235 364.26442 287.77015 363.49904 C 292.19037 362.00985 297.25361 362.56496 301.24671 364.9756 C 305.3803 367.47106 308.24734 371.8215 309.33265 376.52638 C 309.73919 378.28879 309.91801 380.11945 310.61585 381.7881 C 311.68856 384.35308 313.94511 386.32376 316.52015 387.37209 C 319.91516 388.75423 323.90785 388.58592 327.17445 386.92287 C 330.97301 385.08927 335.31986 384.40965 339.49671 384.99709 C 340.01661 385.07021 340.53422 385.16416 341.03577 385.31935 C 342.07866 385.64204 343.03654 386.23827 343.78577 387.03224 C 344.53501 387.82621 345.07481 388.81616 345.33656 389.87599 C 345.75297 390.14861 346.249 390.2962 346.74671 390.29787 C 347.24442 390.29954 347.74255 390.15558 348.16077 389.88576 C 348.579 389.61593 348.91612 389.22272 349.11976 388.76857 C 349.3234 388.31442 349.39181 387.7994 349.31507 387.30763 C 349.20779 386.62017 348.83003 386.00597 348.41663 385.4463 C 346.21871 382.47071 342.72861 380.48673 339.04749 380.12013 C 335.58918 380.45026 332.14275 380.8998 328.71546 381.46779 C 325.85504 381.94184 323.00671 382.49967 320.17835 383.13771 C 319.01544 383.06617 317.87724 382.64313 316.94788 381.94045 C 316.01852 381.23776 315.30239 380.25664 314.91663 379.15724 C 314.3651 377.58537 314.49276 375.86724 314.27405 374.21584 C 313.94019 371.6949 312.78215 369.32411 311.18812 367.34279 C 309.59408 365.36147 307.57713 363.75158 305.41859 362.40724 C 300.82097 359.54386 295.42838 357.8301 290.01624 358.04396 z "
       transform="translate(5.1341611,21.563477)" />
    <path
       style="fill:#467089;fill-opacity:1;stroke-width:1.00157;paint-order:fill markers stroke"
       d="m 308.22097,4.7195202 c -0.58435,1.4934084 -1.72051,2.7309693 -3.05724,3.6169054 -1.33673,0.8859361 -2.86885,1.4405684 -4.42614,1.8234514 -3.11457,0.765767 -6.39357,0.879266 -9.39798,2.001963 -2.67206,0.998502 -5.00939,2.760976 -6.98433,4.819255 -1.97494,2.058279 -3.61131,4.413928 -5.17751,6.798026 -3.80922,5.79847 -7.30282,11.943854 -8.89448,18.696561 -1.18657,5.034072 -1.28032,10.270624 -0.9076,15.4292 0.51165,7.081405 1.89232,14.092959 3.99344,20.874801 3.29184,10.625149 8.32338,20.629537 13.79552,30.313837 5.96466,10.55594 12.48095,20.80016 19.5134,30.67689 l 5.88806,9.4277 0.329,0.52187 1.32737,-0.53322 c 1.18949,-1.6872 2.33583,-3.40483 3.43753,-5.15063 4.908,-7.77745 8.91156,-16.08295 13.34172,-24.14217 3.96667,-7.21606 8.28081,-14.24427 11.98032,-21.600875 3.36271,-6.686866 6.21548,-13.649282 8.1684,-20.874801 2.24138,-8.292776 3.28087,-16.860108 4.0842,-25.412802 0.63152,-6.723483 1.11041,-13.601575 -0.54456,-20.148721 -1.5158,-5.996605 -4.87748,-11.570328 -9.71132,-15.4292 -4.89188,-3.905204 -11.28668,-5.961676 -17.51668,-5.354841 -6.50032,0.633165 -12.48929,4.054402 -17.2444,8.531441 -4.53745,4.272101 -8.12804,9.571593 -10.25588,15.4292 -1.98364,5.460642 -2.68313,11.409067 -1.8152,17.153641 0.86157,5.702474 3.26398,11.150926 6.807,15.701481 1.75865,2.25876 3.82173,4.323002 6.29513,5.764236 2.47339,1.441234 5.38765,2.228294 8.22647,1.859604 2.8163,-0.365765 5.42054,-1.8548 7.40069,-3.890559 1.98015,-2.035759 3.36758,-4.592968 4.30735,-7.272921 1.11629,-3.183348 1.62743,-6.593346 1.34665,-9.955039 -0.28077,-3.361694 -1.36597,-6.671103 -3.25261,-9.467602 -1.1434,-1.694824 -2.60363,-3.217413 -4.41296,-4.169331 -1.80932,-0.951917 -3.99424,-1.287761 -5.93368,-0.640949 -0.37479,0.124993 -0.73721,0.284596 -1.11077,0.413207 -0.37356,0.128612 -0.76318,0.226677 -1.15823,0.222113 -0.62911,-0.0073 -1.24732,-0.286246 -1.68166,-0.741415 -0.43434,-0.455168 -0.68302,-1.078649 -0.69864,-1.707603 -0.0156,-0.628954 0.19836,-1.258325 0.58021,-1.758343 0.38185,-0.500019 0.92708,-0.86978 1.52781,-1.05672 0.58322,-0.18149 1.20451,-0.193293 1.8152,-0.18152 4.81248,0.09278 9.6981,1.653619 13.25096,4.901041 3.16601,2.893824 5.13313,7.061466 5.35484,11.345 1.59703,5.630411 1.13854,11.819986 -1.27064,17.153641 -2.23785,4.954349 -6.28726,9.236553 -11.43576,10.981961 -3.13585,1.063092 -6.5721,1.155432 -9.79834,0.410368 -3.22623,-0.745064 -6.24156,-2.310996 -8.80746,-4.403809 -2.34295,-1.910969 -4.32426,-4.263781 -5.80864,-6.89776 -3.47138,-5.347421 -5.63858,-11.534944 -6.26244,-17.879721 -0.72248,-7.34777 0.62779,-14.855808 3.6304,-21.600881 2.31976,-5.211122 5.62827,-9.998299 9.80208,-13.88628 3.70202,-3.448503 8.07283,-6.1763841 12.79716,-7.9868807 5.84247,-1.1310872 11.93632,-0.943584 17.6982,0.5445601 3.94571,1.0190744 7.77099,2.6639806 10.98196,5.1733206 3.69961,2.891203 6.47899,6.857003 8.34992,11.16348 2.37864,5.475117 3.33062,11.469216 3.72116,17.425921 0.56256,8.580376 0.001,17.22603 -1.54292,25.685081 -1.26067,6.907004 -3.17538,13.69489 -5.71788,20.239482 -3.47105,8.934742 -8.08862,17.369695 -12.52488,25.866595 -3.00078,5.74748 -5.9257,11.53816 -9.16676,17.15365 -3.08134,5.33877 -6.44319,10.51006 -9.62056,15.79224 -1.72693,2.87092 -3.40524,5.78335 -5.4456,8.44068 -0.54977,0.71602 -1.12507,1.41243 -1.72444,2.08748 -0.55291,0.36811 -1.25644,0.50212 -1.90596,0.36304 -0.54935,-0.11763 -1.04681,-0.41957 -1.46299,-0.79696 -0.41617,-0.3774 -0.75748,-0.82932 -1.07829,-1.29052 -1.33159,-1.91428 -2.34779,-4.02539 -3.44888,-6.08092 -3.03722,-5.66992 -6.7408,-10.95006 -10.25588,-16.3368 -3.78324,-5.79768 -7.35626,-11.73253 -10.70968,-17.78897 -4.58677,-6.80095 -8.57062,-14.00837 -11.88956,-21.510115 -2.77069,-6.262552 -5.0783,-12.729924 -6.89776,-19.331882 l -2.35976,-17.516681 c -1.23998,-8.14157 -0.22445,-16.614946 2.90432,-24.232921 2.27801,-5.546536 5.66107,-10.636642 9.89284,-14.88464 3.11385,-3.728748 6.76291,-7.009842 10.80044,-9.7113206 4.37085,-2.924501 9.19628,-5.1681719 14.24932,-6.6254803 1.10268,-0.41892854 2.27089,-0.66486703 3.44888,-0.72608008 0.27969,-0.0145338 0.56112,-0.0186679 0.83884,0.0175431 0.27771,0.036211 0.55272,0.11397037 0.79484,0.2547369 0.38929,0.22633076 0.67505,0.60800456 0.83356,1.02948536 0.15852,0.4214808 0.19664,0.881098 0.1648,1.3302747 -0.0375,0.5290451 -0.16978,1.0490118 -0.36304,1.5429201 z"
       id="path15"
       inkscape:path-effect="#path-effect15"
       inkscape:original-d="m 308.22097,4.7195202 c -0.12101,0.5143067 -11.25424,4.9615469 -16.88136,7.4423198 -5.62712,2.480774 -7.98688,7.684348 -12.16184,11.617281 -4.17496,3.932934 -5.99016,12.464374 -8.89448,18.696561 -2.90432,6.232187 -0.54456,10.225627 -0.9076,15.4292 -0.36304,5.203575 2.7228,13.977041 3.99344,20.874801 1.27064,6.897761 9.19702,20.209228 13.79552,30.313837 4.59851,10.10461 25.98762,40.90252 19.5134,30.67689 6.38346,10.22563 7.88478,12.57404 5.88806,9.4277 2.00806,3.15769 0.44245,0.69582 0.329,0.52187 0.13614,0.1853 1.76226,-0.69961 1.32737,-0.53322 0.43489,-0.12101 2.32194,-3.44888 3.43753,-5.15063 1.11559,-1.70175 8.86423,-16.06452 13.34172,-24.14217 4.4775,-8.07764 7.98688,-14.46109 11.98032,-21.600875 3.99344,-7.139787 5.4456,-13.916535 8.1684,-20.874801 2.7228,-6.958267 2.7228,-16.881362 4.0842,-25.412802 1.3614,-8.53144 -0.39329,-13.462733 -0.54456,-20.148721 -0.15126,-6.685987 -6.50446,-10.25588 -9.71132,-15.4292 -3.20685,-5.173321 -11.61728,-3.569893 -17.51668,-5.354841 -5.8994,-1.7849462 -11.49626,5.687628 -17.2444,8.531441 -5.74813,2.843813 -6.83725,10.286134 -10.25588,15.4292 -3.41862,5.143068 -1.21013,11.435761 -1.8152,17.153641 -0.60506,5.71788 4.538,10.467655 6.807,15.701481 2.269,5.233827 9.71132,5.022054 14.5216,7.62384 4.81028,2.601787 7.77511,-7.44232 11.70804,-11.16348 3.93294,-3.721161 -1.33114,-12.827414 -1.90596,-19.422641 -0.57481,-6.595226 -6.8675,-3.237106 -10.34664,-4.81028 -3.47913,-1.573173 -1.54292,0.423547 -2.269,0.63532 -0.72608,0.211774 -0.12101,-3.600147 -0.27228,-5.264081 -0.15126,-1.663933 1.21014,-0.06051 1.8152,-0.18152 0.60507,-0.121013 8.86423,3.297615 13.25096,4.901041 4.38674,1.603427 7.17004,15.126667 5.35484,11.345 1.8152,3.690907 -0.84709,11.405508 -1.27064,17.153641 -0.42354,5.748134 -7.65409,7.291054 -11.43576,10.981961 -3.78166,3.690906 -12.37361,-2.63204 -18.6058,-3.993441 -6.23218,-1.3614 -7.74485,-9.16676 -5.80864,-6.89776 -1.93621,-2.17824 -4.17496,-11.950067 -6.26244,-17.879721 -2.08748,-5.929653 2.45052,-14.400587 3.6304,-21.600881 1.17988,-7.200293 6.50447,-9.197013 9.80208,-13.88628 3.29762,-4.689268 17.03263,-10.6491741 12.79716,-7.9868807 4.14471,-2.6622934 11.76855,0.3630401 17.6982,0.5445601 5.92966,0.18152 7.35156,3.4791326 10.98196,5.1733206 3.6304,1.694187 5.53636,7.412067 8.34992,11.16348 2.81356,3.751414 2.45052,11.677787 3.72116,17.425921 1.27064,5.748134 -1.05886,17.123387 -1.54292,25.685081 -0.48405,8.561694 -3.75141,13.432481 -5.71788,20.239482 -1.96646,6.807 -8.34992,17.244395 -12.52488,25.866595 -4.17496,8.6222 -12.2526,22.90178 -9.16676,17.15365 3.08584,-5.74814 -6.4137,10.52816 -9.62056,15.79224 -3.20685,5.26408 -3.66065,5.68763 -5.4456,8.44068 -1.78494,2.75305 -2.269,2.78331 -1.72444,2.08748 -0.4538,0.69583 -1.24038,0.24203 -1.90596,0.36304 -0.66557,0.12101 -1.69418,-1.39165 -2.54128,-2.08748 -0.84709,-0.69583 -2.29925,-4.05395 -3.44888,-6.08092 -1.14962,-2.02697 -6.8675,-10.95171 -10.25588,-16.3368 -3.38837,-5.38509 -14.30982,-23.74888 -10.70968,-17.78897 -3.60014,-5.86915 -7.98688,-14.37033 -11.88956,-21.510115 -3.90268,-7.139788 -9.25752,-25.806095 -6.89776,-19.331882 -2.35976,-6.383453 -3.1766,-23.295067 -2.35976,-17.516681 -0.81684,-5.687626 1.90596,-16.185533 2.90432,-24.232921 0.99836,-8.047387 13.1602,-19.87644 9.89284,-14.88464 3.26736,-4.90104 14.34008,-12.8879208 10.80044,-9.7113206 -3.53964,3.1765996 19.02935,-8.83397378 14.24932,-6.6254803 4.68927,-2.20849348 2.29926,-0.51430673 3.44888,-0.72608008 1.14963,-0.21177334 1.05887,0.15126668 1.63368,0.27228002 0.57482,0.12101334 0.66558,1.63368006 0.99836,2.35976006 0.33279,0.7260801 -0.24202,1.0286135 -0.36304,1.5429201 z"
       transform="translate(5.1341611,23.617141)"
       inkscape:label="linea superior derecha" />
    <path
       style="fill:#467089;fill-opacity:1;stroke-width:1.00157;paint-order:fill markers stroke"
       d="m 116.80812,371.84373 c 1.56897,-1.97345 2.72075,-4.27699 3.35812,-6.71624 0.66343,-2.53895 0.76922,-5.18481 0.9076,-7.80536 0.28153,-5.33132 0.69275,-10.81917 -0.99836,-15.883 -1.1515,-3.44804 -3.23216,-6.52272 -5.62712,-9.25752 -3.54133,-4.04385 -7.80731,-7.43828 -11.07272,-11.70804 -1.15796,-1.51412 -2.18888,-3.14235 -2.87427,-4.92102 -0.685386,-1.77866 -1.015306,-3.71869 -0.756125,-5.60714 0.217191,-1.58251 0.840035,-3.08853 1.646735,-4.46719 0.80671,-1.37867 1.79628,-2.64054 2.8005,-3.88273 2.57299,-3.18273 5.26817,-6.27379 7.62384,-9.62056 1.30394,-1.85254 2.50727,-3.79189 3.35773,-5.89162 0.85045,-2.09973 1.34011,-4.37348 1.18027,-6.63326 -0.14392,-2.03469 -0.81217,-4.01356 -1.80051,-5.7979 -0.98834,-1.78433 -2.29126,-3.38094 -3.73585,-4.82102 -3.85585,-3.84383 -8.77818,-6.60669 -14.067795,-7.89612 -5.611554,-1.78614 -11.544088,-2.5586 -17.425921,-2.269 -5.788458,0.28501 -11.471378,1.58291 -17.153642,2.7228 -0.737617,0.14797 -1.484811,0.2963 -2.16314,0.62164 -0.339165,0.16266 -0.659072,0.36955 -0.930682,0.62978 -0.271611,0.26024 -0.494174,0.57502 -0.627338,0.92682 -0.236288,0.62423 -0.171756,1.35184 0.158083,1.93211 0.329839,0.58026 0.915579,1.00545 1.566357,1.15373 0.654327,0.14909 1.336333,0.0286 1.99672,-0.0908 4.527318,-0.81867 9.06589,-1.57509 13.614002,-2.269 5.694729,-0.97244 11.610174,-0.62815 17.153641,0.99836 4.557499,1.33722 8.860805,3.53531 12.615635,6.44396 1.73292,0.97461 3.17602,2.45735 4.10332,4.21603 0.92731,1.75869 1.33554,3.78709 1.16076,5.76757 -0.25541,2.89418 -1.70107,5.53979 -3.26736,7.98688 -2.98487,4.6634 -6.52746,8.96947 -10.528155,12.79716 -0.947767,1.97479 -1.592891,4.09448 -1.90596,6.26244 -0.656957,4.54933 0.204836,9.34754 2.63204,13.25096 1.70211,2.73733 4.093675,4.96195 6.353195,7.2608 2.6307,2.67648 5.11632,5.49554 7.44232,8.44068 2.97124,4.64981 4.68141,10.09703 4.90104,15.61072 0.22682,5.6943 -1.13906,11.4437 -3.90268,16.42756 l -0.27228,0.72608 c 0.21999,0.37134 0.49641,0.70919 0.81684,0.99836 0.29447,0.26574 0.62862,0.49173 0.99836,0.63532 0.40208,0.15615 0.84037,0.21183 1.27064,0.18152 0.51047,-0.036 1.01204,-0.1927 1.45216,-0.4538 z"
       id="path16"
       inkscape:path-effect="#path-effect16"
       inkscape:original-d="m 116.80812,371.84373 c 0.48405,-0.15126 2.29925,-4.538 3.35812,-6.71624 1.05887,-2.17824 0.51431,-5.20357 0.9076,-7.80536 0.39329,-2.60178 -0.63532,-10.58866 -0.99836,-15.883 -0.36304,-5.29433 -3.78167,-6.17168 -5.62712,-9.25752 -1.84545,-3.08584 -7.35156,-7.80536 -11.07272,-11.70804 -3.721155,-3.90268 -2.42027,-7.01877 -3.630395,-10.52816 -1.210134,-3.50938 2.964825,-5.5061 4.447235,-8.34992 1.48241,-2.84381 5.08256,-6.4137 7.62384,-9.62056 2.54128,-3.20685 3.02533,-8.34992 4.538,-12.52488 1.51267,-4.17496 -3.69091,-7.07928 -5.53636,-10.61892 -1.84545,-3.53964 -18.726809,-10.52816 -14.067795,-7.89612 -4.568254,-2.63204 -11.647535,-1.45216 -17.425921,-2.269 -5.778387,-0.81684 -11.375254,1.7547 -17.153642,2.7228 -5.778386,0.96811 -2.480773,1.39166 -3.72116,2.17824 -1.240386,0.78659 1.08912,2.08748 1.72444,3.08584 0.63532,0.99836 1.391654,-0.0302 1.99672,-0.0908 0.605068,-0.0605 18.121748,-3.02533 13.614002,-2.269 4.416986,-0.75633 11.43576,0.72608 17.153641,0.99836 5.71788,0.27228 16.851105,8.6222 12.615635,6.44396 4.23547,2.08748 3.47913,6.68599 5.26408,9.9836 1.78495,3.29762 -2.14799,5.32459 -3.26736,7.98688 -1.11937,2.6623 -14.037542,17.09314 -10.528155,12.79716 -3.509387,4.20522 -1.210134,4.14471 -1.90596,6.26244 -0.695827,2.11774 1.754693,8.89448 2.63204,13.25096 0.877346,4.35648 4.174955,4.78003 6.353195,7.2608 2.17824,2.48078 9.95335,11.25424 7.44232,8.44068 2.60179,2.81356 6.50447,20.78404 4.90104,15.61072 -1.60343,-5.17332 -5.23383,21.90343 -3.90268,16.42756 -1.42191,5.47587 -0.36304,0.96811 -0.27228,0.72608 -0.18152,0.24203 0.57481,0.69583 0.81684,0.99836 0.24203,0.30254 0.66557,0.3933 0.99836,0.63532 0.33279,0.24203 0.78659,0.12102 1.27064,0.18152 0.48405,0.0605 0.96811,-0.30253 1.45216,-0.4538 z"
       transform="translate(5.1341611,21.563477)"
       inkscape:label="linea inferior izquierda" />
    <path
       id="path59"
       style="fill:#467089;stroke-width:1.02694;paint-order:fill markers stroke"
       inkscape:label="linea superior izquierda"
       d="M 198.80274 63.400393 A 198.40565 198.76869 0 0 0 196.40235 64.015628 C 196.15152 64.22207 195.91883 64.452888 195.76368 64.738284 C 195.3892 65.427157 195.37096 66.24832 195.39649 67.031253 C 195.43889 68.331382 195.57939 69.625463 195.68946 70.921878 C 195.71686 71.244712 195.74218 71.567407 195.76368 71.890628 C 196.0177 75.708396 195.68358 79.677919 193.92188 83.078128 C 192.84419 85.158186 191.24883 86.969598 189.31837 88.304691 C 186.2913 90.357819 183.52922 92.797139 181.12305 95.546879 C 177.74054 99.41238 175.05976 103.90224 173.38868 108.75196 C 170.77329 116.34218 170.70817 124.78047 173.20509 132.41016 L 180.29493 151.39063 L 185.63477 173.76368 C 187.15508 179.47955 186.62565 185.71375 184.16212 191.09376 C 182.8407 193.97955 180.93996 196.66004 178.36134 198.52149 C 176.40697 199.9323 174.12861 200.83135 171.82423 201.54688 C 165.67431 203.45649 159.19635 204.1488 153.04102 206.04102 C 144.98976 208.51608 137.68507 212.99111 131.03516 218.14454 C 123.04227 224.33873 115.89862 231.53701 108.84571 238.7754 C 105.14378 242.57468 101.37744 246.45357 96.69141 248.95313 C 95.94115 249.35333 95.146131 249.72345 94.296879 249.77931 C 93.754108 249.81501 93.203324 249.71781 92.707035 249.4961 C 92.210746 249.27435 91.770901 248.9286 91.443363 248.4961 C 91.027008 247.94633 90.796978 247.25892 90.798832 246.57032 C 90.47758 242.65855 90.631138 238.70694 91.257816 234.83204 C 92.217265 228.89955 94.290266 223.1482 97.335941 217.96095 C 100.75304 212.11151 103.59443 205.92991 105.80664 199.53126 C 107.79633 193.77623 109.27743 187.84674 110.22657 181.83399 C 110.72206 178.6576 109.75419 175.2839 107.64844 172.84766 C 105.585 170.46037 102.5603 169.03425 99.453129 168.44532 C 94.200287 167.44969 88.780801 168.68441 83.708988 170.3711 C 83.239367 170.52728 82.792639 170.75365 82.324222 170.92383 A 192.59113 192.56651 0 0 0 80.148441 176.22462 C 80.627808 175.89144 81.135549 175.59106 81.673831 175.36719 C 82.911812 174.85233 84.237598 174.58796 85.550785 174.31446 C 89.681878 173.45406 93.956519 172.46603 98.07227 173.39649 C 99.679106 173.75976 101.2332 174.42228 102.52149 175.44532 C 103.80977 176.46836 104.82113 177.86592 105.25391 179.44923 C 105.56483 180.58671 105.57396 181.78891 105.42969 182.95899 C 105.28543 184.12907 104.99108 185.275 104.70118 186.41798 C 103.34912 191.7486 102.0651 197.12589 99.914066 202.18946 C 97.485085 207.90732 93.989243 213.13341 91.626957 218.87892 C 89.095851 225.03502 87.922861 231.6417 86.470707 238.13478 C 85.907473 240.65319 85.295522 243.19968 85.408207 245.77735 C 85.464547 247.06619 85.706874 248.35573 86.208988 249.54493 C 86.711101 250.73414 87.480268 251.82058 88.496097 252.6211 C 89.809006 253.65574 91.489164 254.17276 93.162113 254.23829 C 94.835063 254.30379 96.503948 253.93911 98.07227 253.35548 C 102.7544 251.61307 106.46628 248.03187 110.04102 244.55274 C 114.94609 239.77887 119.86586 235.01937 124.77344 230.24806 C 130.28643 224.88815 135.87804 219.44321 142.63672 215.75977 C 150.61761 211.41024 159.74635 209.76968 168.60157 207.69141 C 173.52396 206.53616 178.5991 205.13071 182.41212 201.82227 C 184.52148 199.99205 186.14675 197.64859 187.32813 195.12305 C 188.50951 192.59752 189.26046 189.89014 189.7793 187.15235 C 191.26916 179.29088 190.86361 171.14294 189.22657 163.31055 C 187.83639 156.65925 185.57614 150.22096 183.1504 143.8711 C 180.74349 137.57054 178.14882 131.27055 177.07227 124.61524 C 176.49323 121.03555 176.36471 117.35164 177.07227 113.79493 C 178.12302 108.51311 181.00579 103.68692 184.80665 99.857426 C 187.403 97.241515 190.42358 95.057509 192.91016 92.337894 C 196.40019 88.520805 198.70514 83.80224 200.91993 79.134769 C 202.09643 76.655409 203.28019 74.103805 203.50977 71.371097 C 203.58447 70.481387 203.50277 69.58964 203.33985 68.712893 C 203.25255 68.243193 203.1775 67.768512 203.00977 67.320315 C 202.52897 66.03551 201.6893 64.869572 200.55274 64.095706 C 200.29147 63.917807 200.01388 63.762142 199.72266 63.638674 C 199.43028 63.514711 199.11723 63.447973 198.80274 63.400393 z M 80.148441 176.22462 A 192.59113 192.56651 0 0 1 82.324222 170.92383 C 79.787753 171.84537 77.293679 172.95175 75.421878 174.86329 C 74.373756 175.93366 73.540901 177.21819 73.027347 178.62305 C 72.770525 179.32561 72.592084 180.08059 72.701175 180.82032 C 72.755715 181.19018 72.88296 181.55201 73.093753 181.86134 C 73.304546 182.17066 73.601861 182.4247 73.949222 182.56641 C 74.233369 182.68234 74.546051 182.72017 74.851565 182.68946 C 75.15708 182.65876 75.455116 182.56064 75.724612 182.41407 C 76.263606 182.12093 76.682764 181.64478 77.000003 181.1211 C 77.634481 180.07374 77.891632 178.82974 78.552738 177.79884 C 78.960866 177.16242 79.525324 176.65771 80.148441 176.22462 z " />
    <path
       id="path58"
       style="fill:#467089;stroke-width:1.02694;paint-order:fill markers stroke"
       d="M 247.65431 54.480471 A 198.40565 198.76869 0 0 0 198.80274 63.400393 C 199.11723 63.447973 199.43028 63.514711 199.72266 63.638674 C 200.01388 63.762142 200.29147 63.917807 200.55274 64.095706 C 201.6893 64.869572 202.52897 66.03551 203.00977 67.320315 C 203.1775 67.768512 203.25255 68.243193 203.33985 68.712893 A 192.59113 192.56651 0 0 1 247.18946 61.039065 A 192.59113 192.56651 0 0 1 263.98829 61.734377 C 264.42666 60.755485 264.71126 59.704222 264.79884 58.634768 C 264.89394 57.473739 264.75034 56.317094 264.49415 55.17969 A 198.40565 198.76869 0 0 0 247.65431 54.480471 z M 196.40235 64.015628 A 198.40565 198.76869 0 0 0 127.71485 102.93164 C 127.87333 103.52951 128.10448 104.10603 128.43165 104.63086 C 129.05886 105.63699 130.00247 106.45221 131.10938 106.87696 C 131.32608 106.96006 131.56388 106.94526 131.78711 107 A 192.59113 192.56651 0 0 1 195.68946 70.921878 C 195.57939 69.625463 195.4389 68.331382 195.39649 67.031253 C 195.37099 66.24832 195.38949 65.427157 195.76368 64.738284 C 195.91883 64.452888 196.15152 64.22207 196.40235 64.015628 z M 369.68166 90.355472 C 369.30851 90.703034 368.93938 91.060543 368.66017 91.486332 C 367.93555 92.591347 367.54511 93.894751 367.42775 95.210941 C 367.37405 95.813254 367.52575 96.405616 367.57033 97.00391 A 192.59113 192.56651 0 0 1 448.10549 241.85353 L 448.45119 253.41212 A 192.59113 192.56651 0 0 1 258.75196 445.95705 A 192.59113 192.56651 0 0 1 63.357424 259.19337 A 192.59113 192.56651 0 0 1 80.148441 176.22462 C 79.525324 176.65771 78.960866 177.16242 78.552738 177.79884 C 77.891632 178.82974 77.634481 180.07374 77.000003 181.1211 C 76.682764 181.64478 76.263606 182.12093 75.724612 182.41407 C 75.455116 182.56064 75.15708 182.65875 74.851565 182.68946 C 74.546051 182.72016 74.233369 182.68246 73.949222 182.56641 C 73.601861 182.4247 73.304546 182.17066 73.093753 181.86134 C 72.88296 181.55201 72.75572 181.19018 72.701175 180.82032 C 72.592084 180.08059 72.770525 179.32561 73.027347 178.62305 A 198.40565 198.76869 0 0 0 58.271487 259.01564 A 198.40565 198.76869 0 0 0 259.56446 451.79494 A 198.40565 198.76869 0 0 0 454.99221 253.04689 L 454.63478 241.1211 A 198.40565 198.76869 0 0 0 369.68166 90.355472 z "
       inkscape:label="circunsferencia logo" />
  </g>
</svg>
