<?xml version="1.0" encoding="UTF-8" standalone="no"?>
<!-- Created with Inkscape (http://www.inkscape.org/) -->

<svg
   width="500"
   height="500"
   viewBox="0 0 500.00002 500.00002"
   version="1.1"
   id="svg1"
   inkscape:version="1.4 (86a8ad7, 2024-10-11)"
   sodipodi:docname="Ejercicio_5-Con_letras.svg"
   xmlns:inkscape="http://www.inkscape.org/namespaces/inkscape"
   xmlns:sodipodi="http://sodipodi.sourceforge.net/DTD/sodipodi-0.dtd"
   xmlns="http://www.w3.org/2000/svg"
   xmlns:svg="http://www.w3.org/2000/svg">
  <sodipodi:namedview
     id="namedview1"
     pagecolor="#ffffff"
     bordercolor="#000000"
     borderopacity="0.25"
     inkscape:showpageshadow="2"
     inkscape:pageopacity="0.0"
     inkscape:pagecheckerboard="0"
     inkscape:deskcolor="#d1d1d1"
     inkscape:document-units="mm"
     inkscape:zoom="1.4142136"
     inkscape:cx="256.67976"
     inkscape:cy="245.0125"
     inkscape:window-width="1920"
     inkscape:window-height="991"
     inkscape:window-x="-9"
     inkscape:window-y="-9"
     inkscape:window-maximized="1"
     inkscape:current-layer="layer1" />
  <defs
     id="defs1">
    <inkscape:path-effect
       effect="spiro"
       id="path-effect2"
       is_visible="true"
       lpeversion="1" />
    <inkscape:path-effect
       effect="spiro"
       id="path-effect61"
       is_visible="true"
       lpeversion="1" />
    <inkscape:path-effect
       effect="spiro"
       id="path-effect32"
       is_visible="true"
       lpeversion="1" />
    <inkscape:path-effect
       effect="spiro"
       id="path-effect23"
       is_visible="true"
       lpeversion="1" />
    <inkscape:path-effect
       effect="spiro"
       id="path-effect20"
       is_visible="true"
       lpeversion="1" />
    <inkscape:path-effect
       effect="spiro"
       id="path-effect17"
       is_visible="true"
       lpeversion="1" />
    <inkscape:path-effect
       effect="spiro"
       id="path-effect16"
       is_visible="true"
       lpeversion="1" />
    <inkscape:path-effect
       effect="spiro"
       id="path-effect15"
       is_visible="true"
       lpeversion="1" />
    <inkscape:path-effect
       effect="spiro"
       id="path-effect13"
       is_visible="true"
       lpeversion="1" />
    <inkscape:path-effect
       effect="spiro"
       id="path-effect12"
       is_visible="true"
       lpeversion="1" />
    <inkscape:path-effect
       effect="spiro"
       id="path-effect11"
       is_visible="true"
       lpeversion="1" />
  </defs>
  <g
     inkscape:label="Capa 1"
     inkscape:groupmode="layer"
     id="layer1">
    <path
       style="fill:#d4ecec;fill-opacity:1;stroke-width:1.00157;paint-order:fill markers stroke"
       d="m 48.647362,143.03777 c -14.186484,13.00032 -25.063827,30.29786 -27.591041,49.37344 -1.377905,10.40052 -0.262158,21.01782 2.17824,31.22144 4.630168,19.35933 13.911901,37.27331 23.960641,54.456 14.600555,24.966 31.535121,49.42099 55.182078,66.07328 18.06237,12.7196 39.33377,20.32627 60.99073,24.68672 18.84387,3.79406 38.20489,5.22919 57.36032,3.6304 34.21599,-2.85581 67.89527,-15.79203 93.66432,-38.48224 8.95627,-7.88619 17.01114,-17.01412 22.31763,-27.7028 5.30648,-10.68868 7.71896,-23.05993 5.27341,-34.74008 -2.05004,-9.79113 -7.43806,-18.73133 -14.58323,-25.73244 -7.14516,-7.0011 -15.98994,-12.12762 -25.35117,-15.65412 -19.57146,-7.37284 -40.93394,-7.8256 -61.7168,-10.16512 -20.58025,-2.31671 -41.49861,-6.78784 -58.81248,-18.152 -13.43835,-8.82042 -23.9774,-21.3056 -34.46828,-33.48469 -10.49088,-12.1791 -21.38024,-24.43855 -35.23541,-32.58859 -5.76964,-3.39388 -12.018565,-6.03407 -18.569833,-7.40813 -6.551268,-1.37405 -13.414098,-1.45865 -19.912404,0.14733 -9.366698,2.31486 -17.573299,8.00295 -24.686721,14.5216 z"
       id="path17"
       inkscape:original-d="m 48.647362,143.03777 c -8.228906,4.84053 -18.394028,33.15765 -27.591041,49.37344 -9.197014,16.21579 1.45216,20.33024 2.17824,31.22144 0.72608,10.8912 16.215788,36.304 23.960641,54.456 7.744854,18.152 36.788055,44.04885 55.182078,66.07328 18.39403,22.02443 40.41846,16.21579 60.99073,24.68672 20.57227,8.47095 38.24021,2.6623 57.36032,3.6304 19.12011,0.96811 62.20085,-25.89685 93.66432,-38.48224 31.46347,-12.58539 18.152,-41.62859 27.59104,-62.44288 9.43904,-20.81429 -26.13888,-27.59104 -39.9344,-41.38656 -13.79552,-13.79552 -41.62859,-6.77675 -61.7168,-10.16512 -20.08821,-3.38837 -39.20832,-12.34336 -58.81248,-18.152 -19.60416,-5.80864 -45.98507,-43.32277 -69.70369,-66.07328 -23.718609,-22.75052 -25.654823,-5.08256 -38.482237,-7.2608 -12.827414,-2.17824 -16.457814,9.68107 -24.686721,14.5216 z"
       inkscape:path-effect="#path-effect17"
       transform="translate(10.268322,1.0268323)"
       inkscape:label="forma fondo" />
    <path
       style="fill:#467089;fill-opacity:1;stroke-width:1.00157;paint-order:fill markers stroke"
       d="m 222.72505,194.40793 c -2.3478,0.32786 -4.468,1.74526 -5.90629,3.62967 -1.43829,1.8844 -2.23388,4.20346 -2.55519,6.55217 -0.64262,4.6974 0.529,9.42609 1.01916,14.14184 0.60092,5.78137 0.17491,11.61341 0.18152,17.42592 0.0149,13.09948 2.17751,26.61018 -1.99672,39.0268 -3.17931,9.45712 -9.76067,17.34647 -16.51832,24.68672 -3.9979,4.34258 -8.13659,8.61694 -11.29646,13.60256 -3.15988,4.98562 -5.31043,10.82594 -4.85882,16.71128 0.24672,3.21519 1.28739,6.39365 3.16586,9.01465 1.87847,2.62101 4.61463,4.65738 7.72534,5.50695 3.69959,1.0104 7.68602,0.31647 11.25424,-1.08912 6.87884,-2.7097 12.48665,-7.90174 17.34834,-13.47174 4.86168,-5.57 9.16504,-11.63913 14.41766,-16.8421 8.50384,-8.42347 19.3415,-14.34689 30.8584,-17.60744 13.30571,-3.76698 27.30828,-4.04105 41.02352,-5.80864 8.79339,-1.13327 17.55465,-2.90271 25.81724,-6.11793 8.26259,-3.21521 16.03797,-7.9277 22.10404,-14.39383 8.08382,-8.61695 12.88737,-20.54558 11.7988,-32.31056 -0.74509,-8.05281 -4.19282,-15.77443 -9.39426,-21.967 -5.20144,-6.19257 -12.10667,-10.87404 -19.64894,-13.79244 -5.3201,-2.05855 -10.99536,-3.26541 -16.69984,-3.26736 -6.67247,-0.002 -13.35605,1.62864 -19.9672,0.72608 -6.43648,-0.87871 -12.41771,-4.17172 -17.06288,-8.71296 -3.79975,-3.71474 -6.77811,-8.25278 -10.8912,-11.61728 -3.70757,-3.03278 -8.29896,-5.01389 -13.06944,-5.4456 -4.01088,-0.36297 -8.25469,0.43456 -11.43576,2.90432 -2.828,2.19564 -4.63969,5.67813 -4.71952,9.25752 -0.0484,2.16933 0.51602,4.33546 1.5197,6.25924 1.00369,1.92378 2.43813,3.60871 4.10742,4.995 3.89735,3.23663 9.11264,4.80794 14.15856,4.35648 3.91848,-0.35059 7.65871,-1.85693 11.07272,-3.81192 3.52953,-2.02114 6.77424,-4.53697 9.62056,-7.44232 2.2129,-2.25879 4.18026,-4.74482 6.32498,-7.06844 2.14473,-2.32363 4.50108,-4.50888 7.28902,-6.001 1.34704,-0.72095 2.78079,-1.2724 4.11367,-2.01921 1.33289,-0.7468 2.59123,-1.72526 3.32865,-3.06335 0.24944,-0.45262 0.43606,-0.94319 0.51518,-1.4539 0.0791,-0.5107 0.0482,-1.04231 -0.12321,-1.52983 -0.17146,-0.48753 -0.48745,-0.92865 -0.91431,-1.21997 -0.42687,-0.29131 -0.96564,-0.42519 -1.47438,-0.3343 -0.30978,0.0554 -0.60085,0.18992 -0.86861,0.35524 -0.26776,0.16532 -0.51477,0.36164 -0.76507,0.55236 -2.75153,2.09659 -5.9475,3.54894 -8.71296,5.62712 -4.11565,3.09283 -7.09256,7.42008 -10.52816,11.25424 -2.49417,2.78352 -5.26285,5.33545 -8.34992,7.44232 -3.47255,2.36995 -7.42766,4.18819 -11.61728,4.538 -3.35691,0.28028 -6.85419,-0.43763 -9.62056,-2.35976 -1.58068,-1.09829 -2.90908,-2.58805 -3.69406,-4.3455 -0.78498,-1.75744 -1.00438,-3.78587 -0.4809,-5.6381 0.38702,-1.36939 1.1685,-2.61661 2.18948,-3.60789 1.02097,-0.99129 2.27632,-1.72979 3.61916,-2.20075 2.1383,-0.74994 4.48676,-0.82106 6.70519,-0.35922 2.21844,0.46183 4.3105,1.44246 6.18273,2.71898 2.87324,1.95903 5.22073,4.58539 7.44232,7.2608 2.9603,3.56502 5.79219,7.30624 9.43904,10.16512 5.26883,4.1304 12.00443,6.16305 18.69656,6.3532 6.6076,0.18775 13.17977,-1.32927 19.78568,-1.08912 5.06089,0.18398 10.06811,1.4085 14.70312,3.44888 4.45928,1.96302 8.5835,4.68021 12.16184,7.98688 4.65458,4.30121 8.39812,9.64176 10.52816,15.61072 1.91969,5.37951 2.5052,11.23647 1.63368,16.88136 -0.71913,4.65782 -2.43076,9.17323 -5.08256,13.06944 -3.17676,4.66751 -7.61409,8.3517 -12.34336,11.43576 -4.1104,2.68048 -8.48833,4.95731 -13.06944,6.71624 -9.09605,3.49245 -18.83881,4.89769 -28.49864,6.17168 -6.97447,0.91983 -13.96129,1.78481 -20.8748,3.08584 -5.72793,1.07792 -11.39499,2.45321 -17.06288,3.81192 -5.31413,1.2739 -10.67773,2.5498 -15.61072,4.90104 -3.79667,1.80963 -7.27672,4.22988 -10.52816,6.89776 -4.04171,3.31632 -7.75627,7.03111 -11.07272,11.07272 -3.68814,4.49458 -6.88942,9.39625 -10.8912,13.614 -3.00086,3.16281 -6.43298,5.91459 -10.16512,8.1684 -1.83376,1.10739 -3.75563,2.10162 -5.81537,2.6902 -2.05975,0.58859 -4.27409,0.75656 -6.34647,0.21412 -1.89216,-0.49527 -3.6167,-1.57789 -4.93487,-3.02288 -1.31816,-1.44499 -2.23262,-3.2436 -2.68897,-5.14552 -0.8566,-3.57002 -0.0945,-7.38002 1.45216,-10.70968 2.60748,-5.61335 7.25239,-9.96001 11.43576,-14.5216 4.47281,-4.87719 8.52195,-10.1502 11.98032,-15.79224 3.78924,-6.18183 6.88534,-12.8659 8.34992,-19.9672 1.30079,-6.30714 1.29196,-12.80128 1.27064,-19.24112 -0.0297,-8.96325 -0.0741,-17.9405 -0.9076,-26.86496 -0.34051,-3.64599 -0.81304,-7.30625 -0.53664,-10.95766 0.27639,-3.65142 1.37358,-7.35964 3.804,-10.09866 0.97917,-1.1035 2.16382,-2.04113 2.9433,-3.29369 0.38974,-0.62627 0.67162,-1.33175 0.72767,-2.06726 0.056,-0.73551 -0.12788,-1.50254 -0.58513,-2.08137 -0.41015,-0.51921 -1.01768,-0.86149 -1.65897,-1.02441 -0.64129,-0.16293 -1.31613,-0.15622 -1.97143,-0.0647 z"
       id="path11"
       inkscape:path-effect="#path-effect11"
       inkscape:original-d="m 222.72505,194.40793 c -1.21013,-0.36304 -5.08256,16.15528 -7.44232,24.32368 -2.35976,8.1684 0.24203,11.61728 0.18152,17.42592 -0.0605,5.80864 -1.45216,25.95736 -1.99672,39.0268 -0.54456,13.06944 -10.8912,16.45782 -16.51832,24.68672 -5.62712,8.22891 -10.77019,20.20923 -16.15528,30.31384 -5.38509,10.10462 7.32131,9.68107 10.8912,14.5216 3.56989,4.84054 7.44232,-0.72608 11.25424,-1.08912 3.81192,-0.36304 21.23784,-20.26973 31.766,-30.31384 10.52816,-10.0441 20.51176,-11.67778 30.8584,-17.60744 10.34664,-5.92965 27.34902,-3.87242 41.02352,-5.80864 13.67451,-1.93621 31.94752,-13.79552 47.92128,-20.51176 15.97376,-6.71624 7.74486,-21.41936 11.7988,-32.31056 4.05395,-10.8912 -19.18061,-23.83963 -29.0432,-35.75944 -9.86258,-11.91981 -11.19373,-2.23875 -16.69984,-3.26736 -5.5061,-1.02861 -13.31146,0.48405 -19.9672,0.72608 -6.65573,0.24203 -11.31474,-5.68763 -17.06288,-8.71296 -5.74813,-3.02533 -7.3213,-7.80536 -10.8912,-11.61728 -3.56989,-3.81192 -8.77347,-3.56989 -13.06944,-5.4456 -4.29597,-1.87571 -7.50283,1.87571 -11.43576,2.90432 -3.93293,1.02861 -3.20685,6.17168 -4.71952,9.25752 -1.51267,3.08584 3.87243,7.50283 5.62712,11.25424 1.75469,3.75141 9.37853,2.78331 14.15856,4.35648 4.78003,1.57317 7.32131,-2.42027 11.07272,-3.81192 3.75142,-1.39165 6.41371,-4.96155 9.62056,-7.44232 3.20686,-2.48077 9.076,-8.71296 13.614,-13.06944 4.538,-4.35648 4.96155,-3.38837 7.44232,-5.08256 2.48078,-1.69419 -1.27064,-3.08584 -1.99672,-4.538 -0.72608,-1.45216 -1.14962,0.66557 -1.63368,0.9076 -0.48405,0.24203 -5.92965,3.75141 -8.71296,5.62712 -2.7833,1.87571 -6.89776,7.62384 -10.52816,11.25424 -3.6304,3.6304 -5.56661,4.90104 -8.34992,7.44232 -2.78331,2.54128 -7.74485,2.96483 -11.61728,4.538 -3.87243,1.57317 -6.41371,-1.57317 -9.62056,-2.35976 -3.20685,-0.78659 -2.78331,-6.77675 -4.17496,-9.9836 -1.39165,-3.20685 3.93293,-3.69091 5.80864,-5.80864 1.87571,-2.11773 8.59195,1.57317 12.88792,2.35976 4.29597,0.78659 5.02205,4.90104 7.44232,7.2608 2.42027,2.35976 6.17168,6.65573 9.43904,10.16512 3.26736,3.50939 12.46438,4.23547 18.69656,6.3532 6.23219,2.11773 13.31147,-0.66557 19.78568,-1.08912 6.47422,-0.42355 9.68107,2.35976 14.70312,3.44888 5.02206,1.08912 8.22891,5.32459 12.16184,7.98688 3.93294,2.66229 6.89776,10.34664 10.52816,15.61072 3.6304,5.26408 1.08912,11.19373 1.63368,16.88136 0.54456,5.68763 -3.32786,8.83397 -5.08256,13.06944 -1.75469,4.23547 -8.34992,7.38181 -12.34336,11.43576 -3.99344,4.05395 -8.65245,4.59851 -13.06944,6.71624 -4.41698,2.11774 -19.1201,4.17496 -28.49864,6.17168 -9.37853,1.99672 -13.79552,1.99672 -20.8748,3.08584 -7.07928,1.08912 -11.37525,2.60179 -17.06288,3.81192 -5.68763,1.21014 -10.46765,3.26736 -15.61072,4.90104 -5.14307,1.63368 -7.07928,4.538 -10.52816,6.89776 -3.44888,2.35976 -7.38181,7.50283 -11.07272,11.07272 -3.69091,3.5699 -7.13979,8.95499 -10.8912,13.614 -3.75141,4.65902 -6.77675,5.4456 -10.16512,8.1684 -3.38837,2.7228 -8.10789,1.87571 -12.16184,2.90432 -4.05395,1.02862 -5.08256,-5.38509 -7.62384,-8.1684 -2.54128,-2.7833 0.96811,-7.13978 1.45216,-10.70968 0.48405,-3.56989 7.62384,-9.68106 11.43576,-14.5216 3.81192,-4.84053 8.04739,-10.64917 11.98032,-15.79224 3.93293,-5.14306 5.50611,-13.19045 8.34992,-19.9672 2.84381,-6.77675 0.84709,-12.82741 1.27064,-19.24112 0.42355,-6.41371 -0.60507,-17.97048 -0.9076,-26.86496 -0.30253,-8.89448 2.17824,-14.09805 3.26736,-21.05632 1.08912,-6.95827 2.05723,-4.84053 3.08584,-7.44232 1.02861,-2.60179 -2.42027,-0.72608 -3.6304,-1.08912 z"
       transform="translate(10.268322,1.0268323)"
       inkscape:label="linea centro" />
    <path
       style="fill:#467089;fill-opacity:1;stroke-width:1.00157;paint-order:fill markers stroke"
       d="m 389.68284,374.15199 c -0.55723,0.15167 -1.15332,0.1456 -1.71384,0.007 -0.56051,-0.13903 -1.08548,-0.40879 -1.54074,-0.7641 -0.91051,-0.71061 -1.52696,-1.74504 -1.9087,-2.83512 -0.76348,-2.18017 -0.64724,-4.57527 -1.25443,-6.80403 -0.40962,-1.50355 -1.13931,-2.89832 -1.6686,-4.36403 -1.57884,-4.37212 -1.2984,-9.30062 0.33086,-13.65421 1.62925,-4.35359 4.54084,-8.15484 8.01215,-11.24647 3.70933,-3.30362 8.0345,-5.82534 12.06528,-8.72808 4.53233,-3.26392 8.70566,-7.02282 12.45034,-11.1668 3.51724,-3.89229 6.66065,-8.12576 10.39668,-11.80857 1.49381,-1.47253 3.07949,-2.85402 4.49558,-4.40144 1.4161,-1.54742 2.67205,-3.28522 3.37161,-5.2627 0.33724,-0.9533 0.54779,-1.96591 1.07538,-2.82857 0.26379,-0.43133 0.60848,-0.82062 1.03883,-1.08601 0.43034,-0.26539 0.95096,-0.39987 1.4501,-0.31934 0.56016,0.0904 1.05958,0.44901 1.37468,0.92087 0.31511,0.47186 0.45466,1.04785 0.4518,1.61524 -0.006,1.13479 -0.54831,2.19033 -1.1004,3.18177 -3.81566,6.85213 -8.71692,13.0533 -14.0678,18.78732 -3.65065,3.91205 -7.5179,7.61915 -11.52652,11.16348 -3.33969,2.95288 -6.7828,5.79709 -10.4374,8.34992 -3.22617,2.25356 -6.64857,4.30677 -9.34828,7.17004 -1.92036,2.0367 -3.45755,4.5133 -3.99344,7.2608 -0.66939,3.43199 0.25995,6.97108 1.47357,10.25037 1.21361,3.27929 2.72907,6.48723 3.29609,9.93761 0.21275,1.29457 0.28465,2.64725 -0.11473,3.89692 -0.19969,0.62484 -0.51788,1.21608 -0.96104,1.69971 -0.44316,0.48364 -1.01409,0.85657 -1.64703,1.02885 z"
       id="path12"
       inkscape:path-effect="#path-effect12"
       inkscape:original-d="m 389.68284,374.15199 c -0.9076,2.2085 -4.36404,-7.01669 -6.41771,-10.39668 -2.05366,-3.37999 -1.02683,-2.82379 -1.6686,-4.36403 -0.64177,-1.54025 5.47644,-16.51489 8.34301,-24.90068 2.86658,-8.3858 8.12909,-5.98986 12.06528,-8.72808 3.93619,-2.73822 8.30023,-7.40175 12.45034,-11.1668 4.15012,-3.76505 6.9739,-7.82959 10.39668,-11.80857 3.42277,-3.97897 10.51984,-12.87299 7.86719,-9.66414 -2.65265,3.20885 2.40646,-2.85287 3.56431,-4.23392 1.15785,-1.38105 0.42355,3.81192 0.72608,5.71788 0.30254,1.90596 -9.31802,12.52488 -14.0678,18.78732 -4.74977,6.26244 -7.7146,7.47258 -11.52652,11.16348 -3.81192,3.69091 -6.92801,5.53636 -10.4374,8.34992 -3.50938,2.81356 -6.23218,4.78003 -9.34828,7.17004 -3.11609,2.39002 -2.60178,4.84054 -3.99344,7.2608 -1.39165,2.42027 3.3175,13.71377 4.76966,20.18798 1.45216,6.47421 -1.8152,4.41699 -2.7228,6.62548 z"
       transform="matrix(1.0338999,0,0,0.99521747,-3.9028638,2.4537203)"
       inkscape:label="linea lateral derecho" />
    <path
       id="path13"
       style="fill:#467089;fill-opacity:1;stroke-width:1.00157;paint-order:fill markers stroke"
       inkscape:label="linea inferior centro"
       d="m 300.28456,359.07079 c -6.40401,0.25305 -12.47727,3.1694 -17.52148,7.12305 -4.68534,3.67236 -8.596,8.2175 -12.57813,12.64258 -3.06769,3.40892 -6.20186,6.77068 -9.62695,9.82031 -3.23237,2.87803 -6.79878,5.51522 -10.91016,6.86719 -1.27747,0.42007 -2.59301,0.70954 -3.91406,0.96093 -3.70745,0.70554 -7.46901,1.10301 -11.16602,1.86133 -4.68248,0.96047 -9.34566,2.55307 -13.09375,5.51953 -3.19565,2.52924 -5.64963,6.08632 -6.48047,10.07618 -0.12817,0.61553 -0.21536,1.27063 0,1.86132 0.19376,0.53143 0.62795,0.96213 1.14844,1.1836 0.52049,0.22147 1.11864,0.23886 1.66211,0.082 0.54347,-0.15684 1.03172,-0.48158 1.41406,-0.89844 0.38235,-0.41685 0.66226,-0.92391 0.8457,-1.45898 0.23571,-0.68751 0.31501,-1.41753 0.51172,-2.11719 0.43545,-1.54877 1.43195,-2.89971 2.64454,-3.95703 1.21258,-1.05733 2.63898,-1.84255 4.0957,-2.52539 2.81017,-1.31729 5.77532,-2.28219 8.79101,-3.01563 3.8068,-0.92584 7.70372,-1.48677 11.61719,-1.66992 l 0.0176,-0.008 c 0.12773,0.0102 0.25509,0.0188 0.38281,0.0254 0.20858,0.0107 5.20066,-1.61184 3.90625,-1.20899 1.27172,-0.40285 9.69517,-5.01552 7.25977,-3.76757 2.40818,-1.20039 1.95362,-1.56577 2.83008,-2.33399 l 0.043,-0.0215 12.83593,-13.47852 c 3.29307,-5.13595 7.87934,-9.433 13.21875,-12.38477 3.07379,-1.69926 6.39252,-2.95727 9.82032,-3.72265 4.42022,-1.48919 9.48346,-0.93408 13.47656,1.47656 4.13359,2.49546 7.00063,6.8459 8.08594,11.55078 0.40654,1.76241 0.58536,3.59307 1.2832,5.26172 1.07271,2.56498 3.32926,4.53566 5.9043,5.58399 3.39501,1.38214 7.3877,1.21383 10.6543,-0.44922 3.79856,-1.8336 8.14541,-2.51322 12.32226,-1.92578 0.5199,0.0731 1.03751,0.16707 1.53906,0.32226 1.04289,0.32269 2.00077,0.91892 2.75,1.71289 0.74924,0.79397 1.28904,1.78392 1.55079,2.84375 0.41641,0.27262 0.91244,0.42021 1.41015,0.42188 0.49771,0.002 0.99584,-0.14229 1.41406,-0.41211 0.41823,-0.26983 0.75535,-0.66304 0.95899,-1.11719 0.20364,-0.45415 0.27205,-0.96917 0.19531,-1.46094 -0.10728,-0.68746 -0.48504,-1.30166 -0.89844,-1.86133 -2.19792,-2.97559 -5.68802,-4.95957 -9.36914,-5.32617 -3.45831,0.33013 -6.90474,0.77967 -10.33203,1.34766 -2.86042,0.47405 -5.70875,1.03188 -8.53711,1.66992 -1.16291,-0.0715 -2.30111,-0.49458 -3.23047,-1.19726 -0.92936,-0.70269 -1.64549,-1.68381 -2.03125,-2.78321 -0.55153,-1.57187 -0.42387,-3.29 -0.64258,-4.9414 -0.33386,-2.52094 -1.4919,-4.89173 -3.08593,-6.87305 -1.59404,-1.98132 -3.61099,-3.59121 -5.76953,-4.93555 -4.59762,-2.86338 -9.99021,-4.57714 -15.40235,-4.36328 z" />
    <path
       style="fill:#467089;fill-opacity:1;stroke-width:1.00157;paint-order:fill markers stroke"
       d="m 308.22097,4.7195202 c -0.58435,1.4934084 -1.72051,2.7309693 -3.05724,3.6169054 -1.33673,0.8859361 -2.86885,1.4405684 -4.42614,1.8234514 -3.11457,0.765767 -6.39357,0.879266 -9.39798,2.001963 -2.67206,0.998502 -5.00939,2.760976 -6.98433,4.819255 -1.97494,2.058279 -3.61131,4.413928 -5.17751,6.798026 -3.80922,5.79847 -7.30282,11.943854 -8.89448,18.696561 -1.18657,5.034072 -1.28032,10.270624 -0.9076,15.4292 0.51165,7.081405 1.89232,14.092959 3.99344,20.874801 3.29184,10.625149 8.32338,20.629537 13.79552,30.313837 5.96466,10.55594 12.48095,20.80016 19.5134,30.67689 l 5.88806,9.4277 0.329,0.52187 1.32737,-0.53322 c 1.18949,-1.6872 2.33583,-3.40483 3.43753,-5.15063 4.908,-7.77745 8.91156,-16.08295 13.34172,-24.14217 3.96667,-7.21606 8.28081,-14.24427 11.98032,-21.600875 3.36271,-6.686866 6.21548,-13.649282 8.1684,-20.874801 2.24138,-8.292776 3.28087,-16.860108 4.0842,-25.412802 0.63152,-6.723483 1.11041,-13.601575 -0.54456,-20.148721 -1.5158,-5.996605 -4.87748,-11.570328 -9.71132,-15.4292 -4.89188,-3.905204 -11.28668,-5.961676 -17.51668,-5.354841 -6.50032,0.633165 -12.48929,4.054402 -17.2444,8.531441 -4.53745,4.272101 -8.12804,9.571593 -10.25588,15.4292 -1.98364,5.460642 -2.68313,11.409067 -1.8152,17.153641 0.86157,5.702474 3.26398,11.150926 6.807,15.701481 1.75865,2.25876 3.82173,4.323002 6.29513,5.764236 2.47339,1.441234 5.38765,2.228294 8.22647,1.859604 2.8163,-0.365765 5.42054,-1.8548 7.40069,-3.890559 1.98015,-2.035759 3.36758,-4.592968 4.30735,-7.272921 1.11629,-3.183348 1.62743,-6.593346 1.34665,-9.955039 -0.28077,-3.361694 -1.36597,-6.671103 -3.25261,-9.467602 -1.1434,-1.694824 -2.60363,-3.217413 -4.41296,-4.169331 -1.80932,-0.951917 -3.99424,-1.287761 -5.93368,-0.640949 -0.37479,0.124993 -0.73721,0.284596 -1.11077,0.413207 -0.37356,0.128612 -0.76318,0.226677 -1.15823,0.222113 -0.62911,-0.0073 -1.24732,-0.286246 -1.68166,-0.741415 -0.43434,-0.455168 -0.68302,-1.078649 -0.69864,-1.707603 -0.0156,-0.628954 0.19836,-1.258325 0.58021,-1.758343 0.38185,-0.500019 0.92708,-0.86978 1.52781,-1.05672 0.58322,-0.18149 1.20451,-0.193293 1.8152,-0.18152 4.81248,0.09278 9.6981,1.653619 13.25096,4.901041 3.16601,2.893824 5.13313,7.061466 5.35484,11.345 1.59703,5.630411 1.13854,11.819986 -1.27064,17.153641 -2.23785,4.954349 -6.28726,9.236553 -11.43576,10.981961 -3.13585,1.063092 -6.5721,1.155432 -9.79834,0.410368 -3.22623,-0.745064 -6.24156,-2.310996 -8.80746,-4.403809 -2.34295,-1.910969 -4.32426,-4.263781 -5.80864,-6.89776 -3.47138,-5.347421 -5.63858,-11.534944 -6.26244,-17.879721 -0.72248,-7.34777 0.62779,-14.855808 3.6304,-21.600881 2.31976,-5.211122 5.62827,-9.998299 9.80208,-13.88628 3.70202,-3.448503 8.07283,-6.1763841 12.79716,-7.9868807 5.84247,-1.1310872 11.93632,-0.943584 17.6982,0.5445601 3.94571,1.0190744 7.77099,2.6639806 10.98196,5.1733206 3.69961,2.891203 6.47899,6.857003 8.34992,11.16348 2.37864,5.475117 3.33062,11.469216 3.72116,17.425921 0.56256,8.580376 0.001,17.22603 -1.54292,25.685081 -1.26067,6.907004 -3.17538,13.69489 -5.71788,20.239482 -3.47105,8.934742 -8.08862,17.369695 -12.52488,25.866595 -3.00078,5.74748 -5.9257,11.53816 -9.16676,17.15365 -3.08134,5.33877 -6.44319,10.51006 -9.62056,15.79224 -1.72693,2.87092 -3.40524,5.78335 -5.4456,8.44068 -0.54977,0.71602 -1.12507,1.41243 -1.72444,2.08748 -0.55291,0.36811 -1.25644,0.50212 -1.90596,0.36304 -0.54935,-0.11763 -1.04681,-0.41957 -1.46299,-0.79696 -0.41617,-0.3774 -0.75748,-0.82932 -1.07829,-1.29052 -1.33159,-1.91428 -2.34779,-4.02539 -3.44888,-6.08092 -3.03722,-5.66992 -6.7408,-10.95006 -10.25588,-16.3368 -3.78324,-5.79768 -7.35626,-11.73253 -10.70968,-17.78897 -4.58677,-6.80095 -8.57062,-14.00837 -11.88956,-21.510115 -2.77069,-6.262552 -5.0783,-12.729924 -6.89776,-19.331882 l -2.35976,-17.516681 c -1.23998,-8.14157 -0.22445,-16.614946 2.90432,-24.232921 2.27801,-5.546536 5.66107,-10.636642 9.89284,-14.88464 3.11385,-3.728748 6.76291,-7.009842 10.80044,-9.7113206 4.37085,-2.924501 9.19628,-5.1681719 14.24932,-6.6254803 1.10268,-0.41892854 2.27089,-0.66486703 3.44888,-0.72608008 0.27969,-0.0145338 0.56112,-0.0186679 0.83884,0.0175431 0.27771,0.036211 0.55272,0.11397037 0.79484,0.2547369 0.38929,0.22633076 0.67505,0.60800456 0.83356,1.02948536 0.15852,0.4214808 0.19664,0.881098 0.1648,1.3302747 -0.0375,0.5290451 -0.16978,1.0490118 -0.36304,1.5429201 z"
       id="path15"
       inkscape:path-effect="#path-effect15"
       inkscape:original-d="m 308.22097,4.7195202 c -0.12101,0.5143067 -11.25424,4.9615469 -16.88136,7.4423198 -5.62712,2.480774 -7.98688,7.684348 -12.16184,11.617281 -4.17496,3.932934 -5.99016,12.464374 -8.89448,18.696561 -2.90432,6.232187 -0.54456,10.225627 -0.9076,15.4292 -0.36304,5.203575 2.7228,13.977041 3.99344,20.874801 1.27064,6.897761 9.19702,20.209228 13.79552,30.313837 4.59851,10.10461 25.98762,40.90252 19.5134,30.67689 6.38346,10.22563 7.88478,12.57404 5.88806,9.4277 2.00806,3.15769 0.44245,0.69582 0.329,0.52187 0.13614,0.1853 1.76226,-0.69961 1.32737,-0.53322 0.43489,-0.12101 2.32194,-3.44888 3.43753,-5.15063 1.11559,-1.70175 8.86423,-16.06452 13.34172,-24.14217 4.4775,-8.07764 7.98688,-14.46109 11.98032,-21.600875 3.99344,-7.139787 5.4456,-13.916535 8.1684,-20.874801 2.7228,-6.958267 2.7228,-16.881362 4.0842,-25.412802 1.3614,-8.53144 -0.39329,-13.462733 -0.54456,-20.148721 -0.15126,-6.685987 -6.50446,-10.25588 -9.71132,-15.4292 -3.20685,-5.173321 -11.61728,-3.569893 -17.51668,-5.354841 -5.8994,-1.7849462 -11.49626,5.687628 -17.2444,8.531441 -5.74813,2.843813 -6.83725,10.286134 -10.25588,15.4292 -3.41862,5.143068 -1.21013,11.435761 -1.8152,17.153641 -0.60506,5.71788 4.538,10.467655 6.807,15.701481 2.269,5.233827 9.71132,5.022054 14.5216,7.62384 4.81028,2.601787 7.77511,-7.44232 11.70804,-11.16348 3.93294,-3.721161 -1.33114,-12.827414 -1.90596,-19.422641 -0.57481,-6.595226 -6.8675,-3.237106 -10.34664,-4.81028 -3.47913,-1.573173 -1.54292,0.423547 -2.269,0.63532 -0.72608,0.211774 -0.12101,-3.600147 -0.27228,-5.264081 -0.15126,-1.663933 1.21014,-0.06051 1.8152,-0.18152 0.60507,-0.121013 8.86423,3.297615 13.25096,4.901041 4.38674,1.603427 7.17004,15.126667 5.35484,11.345 1.8152,3.690907 -0.84709,11.405508 -1.27064,17.153641 -0.42354,5.748134 -7.65409,7.291054 -11.43576,10.981961 -3.78166,3.690906 -12.37361,-2.63204 -18.6058,-3.993441 -6.23218,-1.3614 -7.74485,-9.16676 -5.80864,-6.89776 -1.93621,-2.17824 -4.17496,-11.950067 -6.26244,-17.879721 -2.08748,-5.929653 2.45052,-14.400587 3.6304,-21.600881 1.17988,-7.200293 6.50447,-9.197013 9.80208,-13.88628 3.29762,-4.689268 17.03263,-10.6491741 12.79716,-7.9868807 4.14471,-2.6622934 11.76855,0.3630401 17.6982,0.5445601 5.92966,0.18152 7.35156,3.4791326 10.98196,5.1733206 3.6304,1.694187 5.53636,7.412067 8.34992,11.16348 2.81356,3.751414 2.45052,11.677787 3.72116,17.425921 1.27064,5.748134 -1.05886,17.123387 -1.54292,25.685081 -0.48405,8.561694 -3.75141,13.432481 -5.71788,20.239482 -1.96646,6.807 -8.34992,17.244395 -12.52488,25.866595 -4.17496,8.6222 -12.2526,22.90178 -9.16676,17.15365 3.08584,-5.74814 -6.4137,10.52816 -9.62056,15.79224 -3.20685,5.26408 -3.66065,5.68763 -5.4456,8.44068 -1.78494,2.75305 -2.269,2.78331 -1.72444,2.08748 -0.4538,0.69583 -1.24038,0.24203 -1.90596,0.36304 -0.66557,0.12101 -1.69418,-1.39165 -2.54128,-2.08748 -0.84709,-0.69583 -2.29925,-4.05395 -3.44888,-6.08092 -1.14962,-2.02697 -6.8675,-10.95171 -10.25588,-16.3368 -3.38837,-5.38509 -14.30982,-23.74888 -10.70968,-17.78897 -3.60014,-5.86915 -7.98688,-14.37033 -11.88956,-21.510115 -3.90268,-7.139788 -9.25752,-25.806095 -6.89776,-19.331882 -2.35976,-6.383453 -3.1766,-23.295067 -2.35976,-17.516681 -0.81684,-5.687626 1.90596,-16.185533 2.90432,-24.232921 0.99836,-8.047387 13.1602,-19.87644 9.89284,-14.88464 3.26736,-4.90104 14.34008,-12.8879208 10.80044,-9.7113206 -3.53964,3.1765996 19.02935,-8.83397378 14.24932,-6.6254803 4.68927,-2.20849348 2.29926,-0.51430673 3.44888,-0.72608008 1.14963,-0.21177334 1.05887,0.15126668 1.63368,0.27228002 0.57482,0.12101334 0.66558,1.63368006 0.99836,2.35976006 0.33279,0.7260801 -0.24202,1.0286135 -0.36304,1.5429201 z"
       transform="translate(10.268322,3.0804963)"
       inkscape:label="linea superior derecha" />
    <path
       style="fill:#467089;fill-opacity:1;stroke-width:1.00157;paint-order:fill markers stroke"
       d="m 116.80812,371.84373 c 1.56897,-1.97345 2.72075,-4.27699 3.35812,-6.71624 0.66343,-2.53895 0.76922,-5.18481 0.9076,-7.80536 0.28153,-5.33132 0.69275,-10.81917 -0.99836,-15.883 -1.1515,-3.44804 -3.23216,-6.52272 -5.62712,-9.25752 -3.54133,-4.04385 -7.80731,-7.43828 -11.07272,-11.70804 -1.15796,-1.51412 -2.18888,-3.14235 -2.87427,-4.92102 -0.685386,-1.77866 -1.015306,-3.71869 -0.756125,-5.60714 0.217191,-1.58251 0.840035,-3.08853 1.646735,-4.46719 0.80671,-1.37867 1.79628,-2.64054 2.8005,-3.88273 2.57299,-3.18273 5.26817,-6.27379 7.62384,-9.62056 1.30394,-1.85254 2.50727,-3.79189 3.35773,-5.89162 0.85045,-2.09973 1.34011,-4.37348 1.18027,-6.63326 -0.14392,-2.03469 -0.81217,-4.01356 -1.80051,-5.7979 -0.98834,-1.78433 -2.29126,-3.38094 -3.73585,-4.82102 -3.85585,-3.84383 -8.77818,-6.60669 -14.067795,-7.89612 -5.611554,-1.78614 -11.544088,-2.5586 -17.425921,-2.269 -5.788458,0.28501 -11.471378,1.58291 -17.153642,2.7228 -0.737617,0.14797 -1.484811,0.2963 -2.16314,0.62164 -0.339165,0.16266 -0.659072,0.36955 -0.930682,0.62978 -0.271611,0.26024 -0.494174,0.57502 -0.627338,0.92682 -0.236288,0.62423 -0.171756,1.35184 0.158083,1.93211 0.329839,0.58026 0.915579,1.00545 1.566357,1.15373 0.654327,0.14909 1.336333,0.0286 1.99672,-0.0908 4.527318,-0.81867 9.06589,-1.57509 13.614002,-2.269 5.694729,-0.97244 11.610174,-0.62815 17.153641,0.99836 4.557499,1.33722 8.860805,3.53531 12.615635,6.44396 1.73292,0.97461 3.17602,2.45735 4.10332,4.21603 0.92731,1.75869 1.33554,3.78709 1.16076,5.76757 -0.25541,2.89418 -1.70107,5.53979 -3.26736,7.98688 -2.98487,4.6634 -6.52746,8.96947 -10.528155,12.79716 -0.947767,1.97479 -1.592891,4.09448 -1.90596,6.26244 -0.656957,4.54933 0.204836,9.34754 2.63204,13.25096 1.70211,2.73733 4.093675,4.96195 6.353195,7.2608 2.6307,2.67648 5.11632,5.49554 7.44232,8.44068 2.97124,4.64981 4.68141,10.09703 4.90104,15.61072 0.22682,5.6943 -1.13906,11.4437 -3.90268,16.42756 l -0.27228,0.72608 c 0.21999,0.37134 0.49641,0.70919 0.81684,0.99836 0.29447,0.26574 0.62862,0.49173 0.99836,0.63532 0.40208,0.15615 0.84037,0.21183 1.27064,0.18152 0.51047,-0.036 1.01204,-0.1927 1.45216,-0.4538 z"
       id="path16"
       inkscape:path-effect="#path-effect16"
       inkscape:original-d="m 116.80812,371.84373 c 0.48405,-0.15126 2.29925,-4.538 3.35812,-6.71624 1.05887,-2.17824 0.51431,-5.20357 0.9076,-7.80536 0.39329,-2.60178 -0.63532,-10.58866 -0.99836,-15.883 -0.36304,-5.29433 -3.78167,-6.17168 -5.62712,-9.25752 -1.84545,-3.08584 -7.35156,-7.80536 -11.07272,-11.70804 -3.721155,-3.90268 -2.42027,-7.01877 -3.630395,-10.52816 -1.210134,-3.50938 2.964825,-5.5061 4.447235,-8.34992 1.48241,-2.84381 5.08256,-6.4137 7.62384,-9.62056 2.54128,-3.20685 3.02533,-8.34992 4.538,-12.52488 1.51267,-4.17496 -3.69091,-7.07928 -5.53636,-10.61892 -1.84545,-3.53964 -18.726809,-10.52816 -14.067795,-7.89612 -4.568254,-2.63204 -11.647535,-1.45216 -17.425921,-2.269 -5.778387,-0.81684 -11.375254,1.7547 -17.153642,2.7228 -5.778386,0.96811 -2.480773,1.39166 -3.72116,2.17824 -1.240386,0.78659 1.08912,2.08748 1.72444,3.08584 0.63532,0.99836 1.391654,-0.0302 1.99672,-0.0908 0.605068,-0.0605 18.121748,-3.02533 13.614002,-2.269 4.416986,-0.75633 11.43576,0.72608 17.153641,0.99836 5.71788,0.27228 16.851105,8.6222 12.615635,6.44396 4.23547,2.08748 3.47913,6.68599 5.26408,9.9836 1.78495,3.29762 -2.14799,5.32459 -3.26736,7.98688 -1.11937,2.6623 -14.037542,17.09314 -10.528155,12.79716 -3.509387,4.20522 -1.210134,4.14471 -1.90596,6.26244 -0.695827,2.11774 1.754693,8.89448 2.63204,13.25096 0.877346,4.35648 4.174955,4.78003 6.353195,7.2608 2.17824,2.48078 9.95335,11.25424 7.44232,8.44068 2.60179,2.81356 6.50447,20.78404 4.90104,15.61072 -1.60343,-5.17332 -5.23383,21.90343 -3.90268,16.42756 -1.42191,5.47587 -0.36304,0.96811 -0.27228,0.72608 -0.18152,0.24203 0.57481,0.69583 0.81684,0.99836 0.24203,0.30254 0.66557,0.3933 0.99836,0.63532 0.33279,0.24203 0.78659,0.12102 1.27064,0.18152 0.48405,0.0605 0.96811,-0.30253 1.45216,-0.4538 z"
       transform="translate(10.268322,1.0268323)"
       inkscape:label="linea inferior izquierda" />
    <path
       style="fill:#ffffff;fill-opacity:1;stroke-width:0.567441;paint-order:fill markers stroke;opacity:0"
       id="path7"
       sodipodi:type="arc"
       sodipodi:cx="4857.1353"
       sodipodi:cy="5112.0098"
       sodipodi:rx="168.22891"
       sodipodi:ry="219.69215"
       sodipodi:start="0"
       sodipodi:end="6.2231381"
       sodipodi:open="true"
       sodipodi:arc-type="arc"
       d="m 5025.3642,5112.0098 a 168.22891,219.69215 0 0 1 -165.7036,219.6674 168.22891,219.69215 0 0 1 -170.6784,-213.0725 168.22891,219.69215 0 0 1 160.5794,-226.0643 168.22891,219.69215 0 0 1 175.4994,206.2854"
       transform="matrix(-0.9983296,0.0577755,0.99936757,0.03555922,0,0)" />
    <path
       d="m 94.326072,381.69196 -10.648635,-11.1268 -0.38735,90.28648 -9.820259,-0.0939 0.378232,-97.82446 -14.075816,-16.24082 c 0,0 6.058782,-22.55314 8.193351,-17.17782 6.292468,15.84584 31.514377,44.35608 31.514377,44.35608 z m 20.031348,19.10065 -3.2144,-0.72074 c -0.27695,-0.1043 -0.72461,-0.18863 -1.34296,-0.253 -0.61835,-0.0643 -1.13406,-0.10177 -1.54712,-0.11231 -0.93546,-0.0238 -1.76313,0.0159 -2.483,0.11916 -0.71987,0.10325 -0.3767,-0.0385 -1.21024,0.23202 l -0.0884,61.01075 -7.467968,-0.16696 0.06702,-73.28703 6.560368,0.16696 -0.0765,3.00684 c 1.47725,-1.20239 2.75552,-1.99043 3.83482,-2.36414 1.07961,-0.38585 2.06893,-0.56734 2.96794,-0.54446 0.23083,0.006 0.49246,0.0113 0.78313,0.0382 0.51817,0.0479 2.52032,2.19704 3.17157,2.31518 z m 15.64166,52.71179 0.0704,-30.92996 c -0.88844,0.055 -1.8504,0.13892 -2.88587,0.25175 -1.03523,0.10067 -1.82186,0.23066 -2.35991,0.38998 -0.66028,0.19332 -1.17064,0.48691 -1.53109,0.88076 -0.34805,0.38195 -0.52857,0.8949 -0.54156,1.53887 -0.009,0.42526 0.0365,27.43748 0.10397,27.70625 0.0675,0.26878 0.24462,0.52761 0.53133,0.7765 0.27455,0.24865 0.60501,0.43764 0.99137,0.56699 0.3866,0.11719 0.99301,0.18412 1.81923,0.20079 0.65612,0.0132 1.32101,-0.1071 1.99466,-0.36089 0.68581,-0.25358 1.13517,-1.02104 1.80742,-1.02104 z m 0.48056,6.34782 c -0.35775,0.2602 -0.80166,0.57336 -1.33172,0.93948 -0.53006,0.36612 -1.02815,0.65388 -1.49427,0.86327 -0.64985,0.27861 -1.32241,0.47776 -2.01767,0.59745 -0.69551,0.13183 -1.45637,0.18942 -2.28259,0.17275 -1.94405,-0.0392 -3.56005,-0.67348 -4.84802,-1.90285 -1.28797,-1.22935 -1.91308,-2.7796 -1.87534,-4.65074 0.0301,-1.49449 -0.0805,-34.72889 0.60693,-35.66314 0.68739,-0.93424 1.65018,-1.66236 2.88839,-2.18437 1.22606,-0.52225 2.74054,-0.88067 4.54344,-1.07526 1.8029,-0.19458 3.6714,-0.32706 5.60551,-0.39744 l 0.002,-0.10935 c 0.0228,-1.12998 0.84742,-6.54567 -1.15655,-7.26184 -0.9146,-0.45604 -2.27102,-0.7022 -4.06927,-0.73847 -1.08137,-0.0218 -2.23957,0.14932 -3.4746,0.51336 -1.23477,0.35191 -2.12155,0.62574 -2.66033,0.82151 l -0.60144,-0.0121 -0.0288,-6.47934 c 0.69625,-0.16829 1.82444,-0.35825 3.38458,-0.56988 1.57253,-0.22354 3.14249,-0.3195 4.70988,-0.28788 3.73014,0.0753 5.96055,1.09174 7.58971,2.27935 2.15497,2.07419 2.96531,4.14543 2.96565,6.60028 l 0.007,50.84532 -6.50648,-0.13125 z m 35.88637,-35.12805 -8.72802,37.75494 -7.43666,-0.11108 -7.41914,-52.55807 8.74149,7.41991 3.13255,32.12348 5.71328,-28.19628 z m 25.80895,19.2218 -15.02004,-0.15296 c 0.0809,1.60507 -0.32423,10.29685 0.78506,11.15888 1.12149,0.86216 3.09681,0.91932 5.2842,0.94159 1.38534,0.0141 2.73069,-0.22131 4.03604,-0.70633 1.30535,-0.485 2.33765,-1.00924 3.0969,-1.57271 l 0.72913,0.007 -0.18195,8.09174 c -1.48862,0.58036 -2.89051,0.99753 -4.20566,1.25151 -1.31515,0.25399 -2.7687,0.37287 -4.36063,0.35666 -4.10742,-0.0418 -7.69466,-0.99741 -9.86323,-2.86684 -2.16857,-1.8694 -1.88775,-16.35387 -1.85298,-19.76862 0.0344,-3.37829 1.0038,-5.31516 3.08971,-7.26277 2.09819,-1.95964 4.95187,-3.37032 8.56105,-3.33357 3.32969,0.0339 5.82443,1.35324 7.48422,3.05944 1.65992,1.69407 2.46268,4.1208 2.44162,7.28044 z m -6.22982,-4.36185 c -0.0225,-1.37356 -0.35221,-3.1159 -0.98923,-3.81513 -0.63701,-0.69923 -1.63603,-1.05577 -2.99707,-1.06963 -1.26382,-0.0129 -2.30617,0.30466 -3.12705,0.95258 -0.82087,0.64792 -1.28728,2.40038 -1.39923,3.84549 z m 18.46257,23.36707 -6.56234,-0.0437 -0.23838,-29.4768 6.58894,1.26952 z m 44.23096,-21.04702 -8.47655,-0.007 0.2098,21.16713 -6.99999,-0.005 -0.2098,-21.16712 -8.47655,-0.007 0.004,-5.25 23.9531,0.0187 z m 26.55847,21.07611 -6.5989,0.0252 -0.0387,-10.15356 c -0.003,-0.82639 -0.049,-1.64653 -0.13699,-2.46043 -0.0882,-0.82606 -0.23637,-1.43314 -0.44445,-1.82124 -0.24477,-0.44872 -0.60452,-0.77547 -1.07927,-0.98026 -0.46259,-0.20483 -1.11315,-0.30565 -1.95168,-0.30246 -0.59549,0.002 -1.20275,0.10154 -1.82179,0.29862 -0.60689,0.19676 -1.26803,0.50918 -1.98342,0.93726 l 0.0553,14.51029 -6.56245,0.025 -0.14576,-26.42536 6.6532,-0.11576 -0.0145,8.30533 c 1.16318,-0.9159 2.27856,-1.61894 3.34614,-2.10912 1.07973,-0.49023 2.27585,-0.73785 3.58834,-0.74286 2.21179,-0.008 3.93992,0.62904 5.18441,1.91253 1.25664,1.28341 1.88985,3.20723 1.89962,5.77144 z m 28.33,-11.60792 -15.02028,0.12778 c 0.11087,1.60328 0.63817,4.64337 1.76342,5.48452 1.1374,0.84105 2.61829,1.79683 4.80571,1.77822 1.38537,-0.0118 2.72608,-0.27235 4.02214,-0.78164 1.29606,-0.50931 2.31838,-1.05275 3.06697,-1.63032 l 1.00142,-1.18588 -0.22748,6.44791 c -1.47752,0.60808 -2.87137,1.05138 -4.18155,1.32989 -1.31017,0.27852 -2.76124,0.42455 -4.35319,0.4381 -4.10749,0.0349 -7.2628,-0.86187 -9.46593,-2.6904 -2.20313,-1.82855 -3.04695,-6.81265 -3.076,-10.22746 -0.0287,-3.37835 0.98147,-6.06065 3.03061,-8.0469 2.06119,-1.99851 4.89641,-3.01311 8.50565,-3.04382 3.32974,-0.0283 5.84031,0.79496 7.5317,2.46987 1.69129,1.66275 2.55034,4.07393 2.57725,7.23354 z m -6.55852,-3.79069 c -0.0481,-1.37291 -0.39719,-2.40296 -1.04716,-3.09016 -0.64997,-0.68721 -1.65548,-1.02502 -3.01654,-1.01344 -1.26384,0.0107 -2.30007,0.34769 -3.1087,1.01086 -0.80862,0.66315 -1.25539,1.71821 -1.34031,3.16516 z m 64.2059,-31.93386 -6.06004,46.32051 -7.74613,0.13973 -7.05745,-22.90196 -2.54775,23.07522 -7.74613,0.13973 -9.34951,-30.11703 7.23351,-2.74107 4.2651,19.01552 3.87584,-20.88064 7.39684,-3.08908 5.45896,23.6679 2.52173,-27.05703 z m 26.94622,3.44335 c 0.0886,3.36515 0.36721,37.84461 -1.54969,39.84019 -1.90507,1.98311 -4.6313,3.02135 -8.17868,3.11473 -3.54737,0.0934 -6.33052,-0.79984 -8.34944,-2.67965 -2.00709,-1.89228 -3.05492,-4.521 -3.1435,-7.88615 -0.0892,-3.38945 -0.36801,-37.87497 1.54921,-39.8584 1.92937,-1.98375 4.65559,-3.02199 8.17868,-3.11474 3.57167,-0.094 6.35498,0.80527 8.34992,2.69787 2.00708,1.89229 3.05491,4.521 3.1435,7.88615 z m -6.74898,36.98643 c 0.41145,-0.53358 0.71084,-1.16754 0.89818,-1.90189 0.19917,-0.74682 -0.91114,-33.56927 -0.94536,-34.86916 -0.0317,-1.20271 -0.16755,-2.20816 -0.40764,-3.01636 -0.2401,-0.8082 -0.56092,-1.45015 -0.96247,-1.92586 -0.40187,-0.48785 -0.87886,-0.82785 -1.43098,-1.01999 -0.55212,-0.19213 -1.14404,-0.27988 -1.77577,-0.26325 -0.63173,0.0166 -1.1944,0.11651 -1.68801,0.29973 -0.48147,0.18287 -0.94023,0.53534 -1.37629,1.05741 -0.38843,0.48435 -0.69326,1.14277 -0.91449,1.97527 -0.20907,0.83218 0.89564,33.67301 0.92858,34.92431 0.0294,1.11767 0.15825,2.08683 0.38654,2.9075 0.22795,0.80851 0.54893,1.45654 0.96295,1.94408 0.40122,0.46356 0.87198,0.79764 1.41227,1.00225 0.55245,0.20428 1.1749,0.29731 1.86737,0.27908 0.59528,-0.0157 1.15763,-0.12773 1.68705,-0.33618 0.54125,-0.22091 0.99394,-0.57323 1.35807,-1.05694 z m 28.8183,-46.21609 -0.58301,0.0194 c -0.28259,-0.0879 -0.73442,-0.1458 -1.35548,-0.17377 -0.62107,-0.028 -1.13808,-0.0351 -1.55105,-0.0213 -0.93525,0.0311 -1.75916,0.11935 -2.47173,0.26464 -0.71257,0.14531 -1.47698,0.37745 -2.29321,0.69644 l -0.43867,49.78034 -6.55886,0.21826 0.0893,-62.68848 6.55887,-0.21826 0.032,4.73059 c 1.40415,-1.28699 2.63399,-2.14868 3.6895,-2.58507 1.05511,-0.44853 2.03207,-0.68776 2.93088,-0.71767 0.23077,-0.008 0.49211,-0.0103 0.78402,-0.008 0.29191,0.003 0.54759,0.0124 0.76702,0.0292 z m 10.71332,50.2492 -6.55737,0.25939 0.87559,-81.21009 6.01281,-4.93353 z m 30.37944,-1.49137 -6.55438,0.32628 -0.10604,-2.13017 c -1.08289,0.97866 -2.10504,1.71094 -3.06644,2.19684 -0.96141,0.4859 -2.08541,0.76087 -3.37201,0.82492 -2.48824,0.12387 -4.52656,-0.73592 -6.11497,-2.57937 -1.58841,-1.84345 -0.64837,-88.21529 -0.8103,-91.4682 -0.0864,-1.73569 0.086,-3.2835 0.51717,-4.64343 0.44271,-1.37267 1.07716,-2.56019 1.90335,-3.56257 0.78005,-0.95142 1.74636,-1.70526 2.89895,-2.26151 1.15199,-0.5684 2.31666,-0.8819 3.49402,-0.94051 1.22591,-0.061 2.23392,0.0227 3.02403,0.251 0.80164,0.21562 1.62511,0.50316 2.47042,0.86262 0,0 -0.14531,-12.44471 0.6257,-13.45477 0.6498,-0.85126 6.50254,-7.05945 6.50254,-7.05945 0.2656,-3.0498 -1.41204,123.63832 -1.41204,123.63832 z m -6.65382,-10.94489 0.99815,-86.18628 c -0.4709,-0.17124 -0.96336,-0.28665 -1.47737,-0.34624 -0.51401,-0.0596 -0.98343,-0.0788 -1.40825,-0.0577 -1.72356,0.0858 -2.98934,0.69028 -3.79735,1.81343 -0.80861,1.11102 -1.16548,2.61934 -1.07062,4.52497 0.0997,2.00273 -0.97941,79.59648 -0.24224,80.47237 0.73656,0.86375 1.86952,1.25756 3.39887,1.18143 0.59475,-0.0296 1.22048,-0.17026 1.87718,-0.42198 0.65609,-0.26385 1.72163,-1.60729 1.72163,-0.98004 z"
       id="text7"
       style="-inkscape-font-specification:'Verdana Bold';fill:#467089;stroke-width:1.00157;paint-order:fill markers stroke"
       aria-label="Travel The World"
       sodipodi:nodetypes="ccccccsccccsssccccccccscccccccssccscsccsccsssscscccscccccscsccccccccccccccsscccsssscscsccssscccccccccccccccccccccccccccccccscsccccsscccsssscscsccsssccccccccccccccccssscscscsccsscsscccscccsccccssscccccccscccccccccccsssscccsccsscccsscscscsc" />
    <path
       id="path59"
       style="fill:#467089;stroke-width:1.02694;paint-order:fill markers stroke"
       inkscape:label="linea superior izquierda"
       d="m 203.9369,42.863748 a 198.40565,198.76869 0 0 0 -2.40039,0.615235 c -0.25083,0.206442 -0.48352,0.43726 -0.63867,0.722656 -0.37448,0.688873 -0.39272,1.510036 -0.36719,2.292969 0.0424,1.300129 0.1829,2.59421 0.29297,3.890625 0.0274,0.322834 0.0527,0.645529 0.0742,0.96875 0.25402,3.817768 -0.0801,7.787291 -1.8418,11.1875 -1.07769,2.080058 -2.67305,3.89147 -4.60351,5.226563 -3.02707,2.053128 -5.78915,4.492448 -8.19532,7.242188 -3.38251,3.865501 -6.06329,8.355361 -7.73437,13.205081 -2.61539,7.59022 -2.68051,16.028515 -0.18359,23.658205 l 7.08984,18.98047 5.33984,22.37305 c 1.52031,5.71587 0.99088,11.95007 -1.47265,17.33008 -1.32142,2.88579 -3.22216,5.56628 -5.80078,7.42773 -1.95437,1.41081 -4.23273,2.30986 -6.53711,3.02539 -6.14992,1.90961 -12.62788,2.60192 -18.78321,4.49414 -8.05126,2.47506 -15.35595,6.95009 -22.00586,12.10352 -7.99289,6.19419 -15.13654,13.39247 -22.18945,20.63086 -3.70193,3.79928 -7.46827,7.67817 -12.1543,10.17773 -0.75026,0.4002 -1.54528,0.77032 -2.39453,0.82618 -0.542771,0.0357 -1.093555,-0.0615 -1.589844,-0.28321 -0.496289,-0.22175 -0.936134,-0.5675 -1.263672,-1 -0.416355,-0.54977 -0.646385,-1.23718 -0.644531,-1.92578 -0.321252,-3.91177 -0.167694,-7.86338 0.458984,-11.73828 0.959449,-5.93249 3.03245,-11.68384 6.078123,-16.87109 3.4171,-5.84944 6.25849,-12.03104 8.4707,-18.42969 1.98969,-5.75503 3.47079,-11.68452 4.41993,-17.69727 0.49549,-3.17639 -0.47238,-6.55009 -2.57813,-8.98633 -2.06344,-2.38729 -5.08814,-3.81341 -8.19531,-4.40234 -5.252842,-0.99563 -10.672328,0.23909 -15.744141,1.92578 -0.469621,0.15618 -0.916349,0.38255 -1.384766,0.55273 a 192.59113,192.56651 0 0 0 -2.175781,5.30079 c 0.479367,-0.33318 0.987108,-0.63356 1.52539,-0.85743 1.237981,-0.51486 2.563767,-0.77923 3.876954,-1.05273 4.131093,-0.8604 8.405734,-1.84843 12.521484,-0.91797 1.60683,0.36327 3.16093,1.02579 4.44922,2.04883 1.28828,1.02304 2.29964,2.4206 2.73242,4.00391 0.31092,1.13748 0.32005,2.33968 0.17578,3.50976 -0.14426,1.17008 -0.43861,2.31601 -0.72851,3.45899 -1.35206,5.33062 -2.63608,10.70791 -4.78712,15.77148 -2.42898,5.71786 -5.924816,10.94395 -8.287102,16.68946 -2.531106,6.1561 -3.704096,12.76278 -5.15625,19.25586 -0.563234,2.51841 -1.175185,5.0649 -1.0625,7.64257 0.05634,1.28884 0.298667,2.57838 0.800781,3.76758 0.502113,1.18921 1.27128,2.27565 2.287109,3.07617 1.312909,1.03464 2.993067,1.55166 4.666016,1.61719 1.67295,0.0655 3.341836,-0.29918 4.910156,-0.88281 4.68213,-1.74241 8.39401,-5.32361 11.96875,-8.80274 4.90507,-4.77387 9.82484,-9.53337 14.73242,-14.30468 5.51299,-5.35991 11.1046,-10.80485 17.86328,-14.48829 7.98089,-4.34953 17.10963,-5.99009 25.96485,-8.06836 4.92239,-1.15525 9.99753,-2.5607 13.81055,-5.86914 2.10936,-1.83022 3.73463,-4.17368 4.91601,-6.69922 1.18138,-2.52553 1.93233,-5.23291 2.45117,-7.9707 1.48986,-7.86147 1.08431,-16.00941 -0.55273,-23.8418 -1.39018,-6.6513 -3.65043,-13.08959 -6.07617,-19.43945 -2.40691,-6.30056 -5.00158,-12.60055 -6.07813,-19.25586 -0.57904,-3.57969 -0.70756,-7.263605 0,-10.820315 1.05075,-5.28182 3.93352,-10.10801 7.73438,-13.937504 2.59635,-2.615911 5.61693,-4.799917 8.10351,-7.519532 3.49003,-3.817089 5.79498,-8.535654 8.00977,-13.203125 1.1765,-2.47936 2.36026,-5.030964 2.58984,-7.763672 0.0747,-0.88971 -0.007,-1.781457 -0.16992,-2.658204 -0.0873,-0.4697 -0.16235,-0.944381 -0.33008,-1.392578 -0.4808,-1.284805 -1.32047,-2.450743 -2.45703,-3.224609 -0.26127,-0.177899 -0.53886,-0.333564 -0.83008,-0.457032 -0.29238,-0.123963 -0.60543,-0.190701 -0.91992,-0.238281 z M 85.282602,155.68798 a 192.59113,192.56651 0 0 1 2.175781,-5.30079 c -2.536469,0.92154 -5.030543,2.02792 -6.902344,3.93946 -1.048122,1.07037 -1.880977,2.3549 -2.394531,3.75976 -0.256822,0.70256 -0.435263,1.45754 -0.326172,2.19727 0.05454,0.36986 0.181785,0.73169 0.392578,1.04102 0.210793,0.30932 0.508108,0.56336 0.855469,0.70507 0.284147,0.11593 0.596829,0.15376 0.902343,0.12305 0.305515,-0.0307 0.603551,-0.12882 0.873047,-0.27539 0.538994,-0.29314 0.958152,-0.76929 1.275391,-1.29297 0.634478,-1.04736 0.891629,-2.29136 1.552735,-3.32226 0.408128,-0.63642 0.972586,-1.14113 1.595703,-1.57422 z" />
    <path
       id="path58"
       style="fill:#467089;stroke-width:1.02694;paint-order:fill markers stroke"
       d="m 252.78847,33.943826 c -16.59246,0.912056 -33.00483,3.908827 -48.85157,8.919922 0.31449,0.04758 0.62754,0.114318 0.91992,0.238281 0.29122,0.123468 0.56881,0.279133 0.83008,0.457032 1.13656,0.773866 1.97623,1.939804 2.45703,3.224609 0.16773,0.448197 0.24278,0.922878 0.33008,1.392578 14.27074,-4.244064 28.98555,-6.819205 43.84961,-7.673828 5.60706,-0.01285 11.21201,0.219143 16.79883,0.695312 0.43837,-0.978892 0.72297,-2.030155 0.81055,-3.099609 0.0951,-1.161029 -0.0485,-2.317674 -0.30469,-3.455078 -5.60086,-0.471932 -11.21921,-0.705216 -16.83984,-0.699219 z m -51.25196,9.535157 c -25.26578,8.2337 -48.62352,21.467401 -68.6875,38.916012 0.15848,0.59787 0.38963,1.17439 0.7168,1.69922 0.62721,1.00613 1.57082,1.82135 2.67773,2.2461 0.2167,0.0831 0.4545,0.0683 0.67773,0.12304 18.79119,-16.010142 40.48575,-28.258502 63.90235,-36.078122 -0.11007,-1.296415 -0.25056,-2.590496 -0.29297,-3.890625 -0.0255,-0.782933 -0.007,-1.604096 0.36719,-2.292969 0.15515,-0.285396 0.38784,-0.516214 0.63867,-0.722656 z m 173.27931,26.339844 c -0.37315,0.347562 -0.74228,0.705071 -1.02149,1.13086 -0.72462,1.105015 -1.11506,2.408419 -1.23242,3.724609 -0.0537,0.602313 0.098,1.194675 0.14258,1.792969 47.31435,33.672485 76.9056,86.894975 80.53516,144.849625 l 0.3457,11.55859 c 7e-5,105.22409 -84.47355,190.96491 -189.69923,192.54493 C 158.66064,426.9995 71.650973,343.83318 68.491585,238.65673 c -0.627014,-28.55917 5.108555,-56.9001 16.791017,-82.96875 -0.623117,0.43309 -1.187575,0.9378 -1.595703,1.57422 -0.661106,1.0309 -0.918257,2.2749 -1.552735,3.32226 -0.317239,0.52368 -0.736397,0.99983 -1.275391,1.29297 -0.269496,0.14657 -0.567532,0.24468 -0.873047,0.27539 -0.305514,0.0307 -0.618196,-0.007 -0.902343,-0.12305 -0.347361,-0.14171 -0.644676,-0.39575 -0.855469,-0.70507 -0.210793,-0.30933 -0.338033,-0.67116 -0.392578,-1.04102 -0.109091,-0.73973 0.06935,-1.49471 0.326172,-2.19727 -10.424863,25.484 -15.449716,52.86031 -14.75586,80.39259 3.25459,108.56382 92.890782,194.40885 201.292972,192.7793 108.4037,-1.63021 195.4287,-90.13376 195.42775,-198.74805 l -0.35743,-11.92579 C 455.93265,159.96503 424.63999,104.43018 374.81582,69.818827 Z"
       inkscape:label="circunsferencia logo"
       sodipodi:nodetypes="ccssscccsccccscccscccssccccccsssscsscccccc" />
  </g>
</svg>
